<svg width="24" height="24" viewBox="0 0 24 24" fill="none" xmlns="http://www.w3.org/2000/svg">
<g clip-path="url(#clip0_2_4124)">
<path d="M1.44029 21.7054C1.40153 21.7054 1.36276 21.7054 1.34347 21.6859C1.24665 21.6666 1.14982 21.5891 1.11106 21.4923L0.0460038 19.517C-0.0508191 19.3234 0.00723684 19.0912 0.200883 18.9943L0.840066 18.6456L0.491352 17.9098C0.414007 17.7356 0.472063 17.5225 0.626942 17.4257L1.32418 16.9803L0.956178 16.2058C0.878644 16.0314 0.936889 15.8185 1.09177 15.7216L1.8083 15.2375L1.44029 14.4242C1.40153 14.3468 1.40153 14.25 1.421 14.1725L2.15682 11.3646C0.994945 10.2996 0.530119 8.6148 0.975467 7.00758C1.28541 5.90376 2.00194 4.9743 3.00875 4.41265C4.01575 3.85119 5.15833 3.7156 6.28144 4.02536C8.56643 4.66454 9.90266 7.04635 9.24419 9.33133C8.79884 10.958 7.46261 12.2553 5.95221 12.5653L3.74476 20.2723C3.72528 20.3692 3.64793 20.4467 3.5704 20.5047L1.63394 21.6278C1.57588 21.6859 1.49835 21.7054 1.44029 21.7054ZM0.898122 19.4977L1.59517 20.7757L3.04752 19.9238L5.27445 12.1392C5.31321 11.9843 5.4488 11.8875 5.58439 11.868C6.90115 11.6939 8.08231 10.5707 8.48908 9.13769C9.01177 7.25928 7.92743 5.32282 6.04903 4.79994C5.13885 4.54824 4.1901 4.66454 3.37675 5.10989C2.5634 5.57452 1.96317 6.32982 1.71147 7.22052C1.32418 8.59552 1.76953 10.0479 2.83458 10.9193C2.95069 11.0161 3.00875 11.171 2.97017 11.3258L2.21488 14.2305L2.66022 15.2182C2.73776 15.3924 2.6797 15.5861 2.52463 15.7024L1.8083 16.167L2.17611 16.9223C2.25364 17.0965 2.19559 17.3096 2.04052 17.4064L1.34347 17.8518L1.71147 18.607C1.8083 18.8007 1.73076 19.0136 1.5564 19.1105L0.898122 19.4977Z" fill="#2D2D38"/>
<path d="M5.48757 8.15017C5.37127 8.15017 5.23568 8.13069 5.11957 8.09192C4.77104 7.9951 4.48057 7.76287 4.28693 7.45293C4.11257 7.14317 4.0738 6.77517 4.17063 6.42664C4.38375 5.71011 5.13885 5.28406 5.85538 5.4777C6.20391 5.57452 6.49438 5.80694 6.68802 6.11688C6.86238 6.42664 6.90115 6.79464 6.80432 7.14317C6.62997 7.76287 6.0878 8.15017 5.48757 8.15017ZM5.48757 6.21371C5.23568 6.21371 4.98398 6.38788 4.92592 6.63958C4.88715 6.79464 4.90663 6.94952 4.98398 7.08511C5.06151 7.22051 5.1971 7.31734 5.3325 7.3561C5.64245 7.45293 5.97168 7.25928 6.06851 6.94952C6.10708 6.79464 6.0878 6.63958 6.01026 6.50418C5.93292 6.36859 5.79733 6.27176 5.66174 6.233C5.58439 6.21371 5.54562 6.21371 5.48757 6.21371Z" fill="#2D2D38"/>
<path d="M8.81813 9.77668C7.98549 9.77668 7.2109 9.50569 6.55262 9.0021C6.37826 8.86651 6.35898 8.63428 6.47509 8.45992C6.61068 8.28557 6.84309 8.26628 7.01726 8.38239C7.54014 8.78916 8.15984 8.98281 8.81813 8.98281C9.34101 8.98281 9.86389 8.84722 10.3092 8.57604C10.5029 8.45992 10.7353 8.53746 10.8321 8.71163C10.9482 8.90527 10.8709 9.13768 10.6965 9.23451C10.1351 9.60251 9.4766 9.77668 8.81813 9.77668Z" fill="#2D2D38"/>
<path d="M5.50686 6.21371L5.48757 6.21371C5.27445 6.19423 5.11957 6.02006 5.11957 5.80694C5.25516 3.87048 6.88167 2.36008 8.81813 2.36008C10.5417 2.36008 12.0715 3.58001 12.4393 5.28406C12.4781 5.49718 12.362 5.69083 12.1489 5.74888C11.9359 5.78765 11.7423 5.67135 11.6842 5.45841C11.3938 4.0836 10.1931 3.11537 8.81813 3.11537C7.28844 3.11537 5.99097 4.31583 5.89415 5.8457C5.87486 6.03935 5.7005 6.21371 5.50686 6.21371Z" fill="#2D2D38"/>
<path d="M17.9195 18.8393C17.8227 18.8393 17.7258 18.8007 17.6485 18.7232L11.0645 12.1392C10.9097 11.9843 10.5609 11.5775 10.5609 11.0934L10.1544 6.81393C10.1544 6.79464 10.1544 6.79464 10.1544 6.77517C10.1544 6.25229 10.3092 5.86499 10.6578 5.49718C11.0065 5.14865 11.3938 4.99359 11.8391 4.99359H11.9747L16.2542 5.38088C16.7576 5.38088 17.1449 5.74888 17.3 5.88447L23.8839 12.4684C24.0388 12.6233 24.0388 12.8557 23.8839 13.0106L18.1907 18.7232C18.1326 18.8007 18.0358 18.8393 17.9195 18.8393ZM10.9289 6.75588L11.3355 11.0354V11.0741C11.3355 11.229 11.4518 11.4227 11.626 11.597L17.939 17.9098L23.0706 12.7589L16.7576 6.44593C16.5834 6.27176 16.3703 6.15546 16.2349 6.15546C16.2154 6.15546 16.2154 6.15546 16.1962 6.15546L11.8391 5.74888C11.6067 5.74888 11.4131 5.8457 11.2194 6.03935C11.0065 6.25229 10.9289 6.44593 10.9289 6.75588Z" fill="#2D2D38"/>
<path d="M14.9955 12.0424C14.8987 12.0424 14.8019 12.0036 14.7243 11.9263C14.5695 11.7712 14.5695 11.539 14.7243 11.3839L16.6027 9.50569C16.7576 9.35062 16.99 9.35062 17.1449 9.50569C17.3 9.66057 17.3 9.89298 17.1449 10.0479L15.2667 11.9263C15.1892 12.0036 15.0923 12.0424 14.9955 12.0424Z" fill="#2D2D38"/>
<path d="M17.1837 14.2305C17.0868 14.2305 16.99 14.1918 16.9127 14.1144C16.7576 13.9595 16.7576 13.7271 16.9127 13.5723L18.7909 11.6939C18.946 11.539 19.1782 11.539 19.3333 11.6939C19.4881 11.8487 19.4881 12.0811 19.3333 12.236L17.4549 14.1144C17.3773 14.1918 17.2805 14.2305 17.1837 14.2305Z" fill="#2D2D38"/>
<path d="M5.48757 6.21371C5.23568 6.21371 4.98398 6.38787 4.92592 6.63958C4.88715 6.79464 4.90663 6.94952 4.98398 7.08511C5.06151 7.22051 5.1971 7.31734 5.3325 7.3561C5.64245 7.45293 5.97168 7.25928 6.06851 6.94952C6.10708 6.79464 6.0878 6.63958 6.01026 6.50418C5.93292 6.36859 5.79733 6.27176 5.66174 6.233C5.58439 6.21371 5.54562 6.21371 5.48757 6.21371ZM5.48757 6.21371L5.50686 6.21371C5.7005 6.21371 5.87486 6.03935 5.89415 5.8457C5.99097 4.31583 7.28844 3.11537 8.81813 3.11537C10.1931 3.11537 11.3938 4.0836 11.6842 5.45841C11.7423 5.67135 11.9359 5.78765 12.1489 5.74888C12.362 5.69083 12.4781 5.49718 12.4393 5.28406C12.0715 3.58001 10.5417 2.36008 8.81813 2.36008C6.88167 2.36008 5.25516 3.87048 5.11957 5.80694C5.11957 6.02006 5.27444 6.19423 5.48757 6.21371ZM1.44029 21.7054C1.40153 21.7054 1.36276 21.7054 1.34347 21.6859C1.24665 21.6666 1.14982 21.5891 1.11106 21.4923L0.0460038 19.517C-0.0508191 19.3234 0.00723684 19.0912 0.200883 18.9943L0.840066 18.6456L0.491352 17.9098C0.414007 17.7356 0.472063 17.5225 0.626942 17.4257L1.32418 16.9803L0.956178 16.2058C0.878644 16.0314 0.936889 15.8185 1.09177 15.7216L1.8083 15.2375L1.44029 14.4242C1.40153 14.3468 1.40153 14.25 1.421 14.1725L2.15682 11.3646C0.994945 10.2996 0.530119 8.6148 0.975467 7.00758C1.28541 5.90376 2.00194 4.9743 3.00875 4.41265C4.01575 3.85119 5.15833 3.7156 6.28144 4.02536C8.56643 4.66454 9.90266 7.04635 9.24419 9.33133C8.79884 10.958 7.46261 12.2553 5.95221 12.5653L3.74476 20.2723C3.72528 20.3692 3.64793 20.4467 3.5704 20.5047L1.63394 21.6278C1.57588 21.6859 1.49835 21.7054 1.44029 21.7054ZM0.898122 19.4977L1.59517 20.7757L3.04752 19.9238L5.27445 12.1392C5.31321 11.9843 5.4488 11.8875 5.58439 11.868C6.90115 11.6939 8.08231 10.5707 8.48908 9.13769C9.01177 7.25928 7.92743 5.32282 6.04903 4.79994C5.13885 4.54824 4.1901 4.66454 3.37675 5.10989C2.5634 5.57452 1.96317 6.32982 1.71147 7.22052C1.32418 8.59552 1.76953 10.0479 2.83458 10.9193C2.95069 11.0161 3.00875 11.171 2.97017 11.3258L2.21488 14.2305L2.66022 15.2182C2.73776 15.3924 2.6797 15.5861 2.52463 15.7024L1.8083 16.167L2.17611 16.9223C2.25364 17.0965 2.19559 17.3096 2.04052 17.4064L1.34347 17.8518L1.71147 18.607C1.8083 18.8007 1.73076 19.0136 1.5564 19.1105L0.898122 19.4977ZM5.48757 8.15017C5.37127 8.15017 5.23568 8.13069 5.11957 8.09192C4.77104 7.9951 4.48057 7.76287 4.28693 7.45293C4.11257 7.14317 4.0738 6.77517 4.17063 6.42664C4.38375 5.71011 5.13885 5.28406 5.85538 5.4777C6.20391 5.57452 6.49438 5.80694 6.68802 6.11688C6.86238 6.42664 6.90115 6.79464 6.80432 7.14317C6.62997 7.76287 6.0878 8.15017 5.48757 8.15017ZM8.81813 9.77668C7.98549 9.77668 7.2109 9.50569 6.55262 9.0021C6.37826 8.86651 6.35898 8.63428 6.47509 8.45992C6.61068 8.28557 6.84309 8.26628 7.01726 8.38239C7.54014 8.78916 8.15984 8.98281 8.81813 8.98281C9.34101 8.98281 9.86389 8.84722 10.3092 8.57604C10.5029 8.45992 10.7353 8.53746 10.8321 8.71163C10.9482 8.90527 10.8709 9.13769 10.6965 9.23451C10.1351 9.60251 9.4766 9.77668 8.81813 9.77668ZM17.9195 18.8393C17.8227 18.8393 17.7258 18.8007 17.6485 18.7232L11.0645 12.1392C10.9097 11.9843 10.5609 11.5775 10.5609 11.0934L10.1544 6.81393C10.1544 6.79464 10.1544 6.79465 10.1544 6.77517C10.1544 6.25229 10.3092 5.86499 10.6578 5.49718C11.0065 5.14865 11.3938 4.99359 11.8391 4.99359H11.9747L16.2542 5.38088C16.7576 5.38088 17.1449 5.74888 17.3 5.88447L23.8839 12.4684C24.0388 12.6233 24.0388 12.8557 23.8839 13.0106L18.1907 18.7232C18.1326 18.8007 18.0358 18.8393 17.9195 18.8393ZM10.9289 6.75588L11.3355 11.0354V11.0741C11.3355 11.229 11.4518 11.4227 11.626 11.597L17.939 17.9098L23.0706 12.7589L16.7576 6.44593C16.5834 6.27176 16.3703 6.15546 16.2349 6.15546C16.2154 6.15546 16.2154 6.15546 16.1962 6.15546L11.8391 5.74888C11.6067 5.74888 11.4131 5.8457 11.2194 6.03935C11.0065 6.25229 10.9289 6.44593 10.9289 6.75588ZM14.9955 12.0424C14.8987 12.0424 14.8019 12.0036 14.7243 11.9263C14.5695 11.7712 14.5695 11.539 14.7243 11.3839L16.6027 9.50569C16.7576 9.35062 16.99 9.35062 17.1449 9.50569C17.3 9.66057 17.3 9.89298 17.1449 10.0479L15.2667 11.9263C15.1892 12.0036 15.0923 12.0424 14.9955 12.0424ZM17.1837 14.2305C17.0868 14.2305 16.99 14.1918 16.9127 14.1144C16.7576 13.9595 16.7576 13.7271 16.9127 13.5723L18.7909 11.6939C18.946 11.539 19.1782 11.539 19.3333 11.6939C19.4881 11.8487 19.4881 12.0811 19.3333 12.236L17.4549 14.1144C17.3773 14.1918 17.2805 14.2305 17.1837 14.2305Z" stroke="#2D2D38" stroke-width="0.75"/>
</g>
<defs>
<clipPath id="clip0_2_4124">
<rect width="24" height="24" fill="white"/>
</clipPath>
</defs>
</svg>
