<svg width="24" height="24" viewBox="0 0 24 24" fill="none" xmlns="http://www.w3.org/2000/svg">
<path fill-rule="evenodd" clip-rule="evenodd" d="M12.02 16.2511C11.1665 16.2511 10.7699 16.126 10.0804 15.6254C9.64435 16.1886 8.26341 16.6286 8.20318 15.8757C8.20318 15.3105 8.07859 14.8329 7.93738 14.3115C7.76917 13.6691 7.57812 12.9538 7.57812 11.9172C7.57812 9.44157 9.60074 7.5791 11.9971 7.5791C14.3956 7.5791 16.275 9.53333 16.275 11.9401C16.283 14.3097 14.3793 16.2385 12.02 16.2511ZM12.0553 9.71895C10.8882 9.65847 9.97868 10.4698 9.77725 11.742C9.61112 12.7953 9.906 14.0779 10.1573 14.1447C10.2777 14.1739 10.5809 13.9278 10.7699 13.738C11.0823 13.9548 11.4462 14.085 11.8248 14.1155C13.034 14.1739 14.0673 13.2493 14.1485 12.0361C14.1958 10.8203 13.2647 9.79062 12.0553 9.72104V9.71895Z" fill="#2D2D38"/>
<path d="M12 21.6C14.5461 21.6 16.9879 20.5886 18.7882 18.7882C20.5886 16.9879 21.6 14.5461 21.6 12C21.6 9.45392 20.5886 7.01212 18.7882 5.21178C16.9879 3.41143 14.5461 2.4 12 2.4C9.45392 2.4 7.01212 3.41143 5.21178 5.21178C3.41143 7.01212 2.4 9.45392 2.4 12C2.4 14.5461 3.41143 16.9879 5.21178 18.7882C7.01212 20.5886 9.45392 21.6 12 21.6ZM12 24C5.3724 24 0 18.6276 0 12C0 5.3724 5.3724 0 12 0C18.6276 0 24 5.3724 24 12C24 18.6276 18.6276 24 12 24Z" fill="#2D2D38"/>
</svg>
