<svg width="24" height="24" viewBox="0 0 24 24" fill="none" xmlns="http://www.w3.org/2000/svg">
<g clip-path="url(#clip0_2_12556)">
<path d="M11.5305 13.9963C10.7605 13.9153 10.0675 13.7243 9.47349 13.2563C9.39949 13.1983 9.32349 13.1423 9.25649 13.0763C8.99649 12.8263 8.96949 12.5373 9.17649 12.2413C9.35149 11.9873 9.64649 11.9193 9.95449 12.0643C10.0139 12.0935 10.0707 12.1277 10.1245 12.1663C11.2315 12.9323 12.7525 12.9533 13.8645 12.2003C13.9745 12.1153 14.0915 12.0463 14.2275 12.0103C14.3504 11.9743 14.482 11.9807 14.6008 12.0286C14.7196 12.0765 14.8189 12.1631 14.8825 12.2743C15.0455 12.5413 15.0425 12.8013 14.8425 13.0083C14.5358 13.3203 14.1649 13.5619 13.7555 13.7163C13.3675 13.8683 12.9415 13.9443 12.5205 13.9953C12.5845 14.0653 12.6145 14.0993 12.6545 14.1393C13.2255 14.7173 13.7995 15.2933 14.3695 15.8733C14.5635 16.0713 14.6045 16.3163 14.4975 16.5463C14.3805 16.7963 14.1185 16.9623 13.8625 16.9443C13.7071 16.9286 13.5635 16.8547 13.4605 16.7373C13.0295 16.3003 12.5905 15.8713 12.1675 15.4263C12.0445 15.2963 11.9845 15.3213 11.8765 15.4333C11.4425 15.8833 11.0015 16.3263 10.5575 16.7673C10.3585 16.9643 10.1215 17.0003 9.89049 16.8873C9.77215 16.8315 9.67242 16.7428 9.60324 16.6318C9.53407 16.5207 9.49839 16.3921 9.50049 16.2613C9.50949 16.0903 9.59249 15.9583 9.71049 15.8413L11.4045 14.1323C11.4415 14.0943 11.4765 14.0543 11.5305 13.9963Z" fill="#2D2D38"/>
<path d="M11.9888 12C11.3283 11.9942 10.6968 11.7275 10.2321 11.2581C9.76733 10.7887 9.507 10.1546 9.50781 9.494C9.51099 8.83059 9.7771 8.1955 10.2478 7.72798C10.7185 7.26047 11.3554 6.99867 12.0188 7.00001C12.3488 7.00183 12.6751 7.06888 12.9791 7.1973C13.2831 7.32572 13.5586 7.51298 13.79 7.7483C14.0213 7.98362 14.2038 8.26236 14.327 8.56847C14.4502 8.87459 14.5116 9.20205 14.5078 9.532C14.5008 10.898 13.3708 12.005 11.9888 12ZM13.2328 9.498C13.2332 9.3373 13.2018 9.1781 13.1404 9.02958C13.079 8.88107 12.9888 8.74618 12.875 8.63268C12.7612 8.51918 12.6261 8.42932 12.4775 8.36828C12.3288 8.30723 12.1695 8.27621 12.0088 8.277C11.8468 8.2762 11.6863 8.30765 11.5366 8.36954C11.3869 8.43143 11.251 8.52252 11.1369 8.63748C11.0228 8.75244 10.9327 8.88898 10.8719 9.03913C10.8111 9.18928 10.7808 9.35003 10.7828 9.512C10.7836 9.67272 10.8162 9.83169 10.8787 9.97976C10.9412 10.1278 11.0324 10.2621 11.147 10.3747C11.2616 10.4874 11.3974 10.5762 11.5465 10.6362C11.6956 10.6961 11.8551 10.726 12.0158 10.724C12.1764 10.7241 12.3355 10.6925 12.4838 10.6308C12.6321 10.5691 12.7667 10.4787 12.8799 10.3647C12.993 10.2507 13.0825 10.1154 13.143 9.96665C13.2036 9.8179 13.2341 9.65862 13.2328 9.498Z" fill="#2D2D38"/>
<path d="M12 21.6C14.5461 21.6 16.9879 20.5886 18.7882 18.7882C20.5886 16.9879 21.6 14.5461 21.6 12C21.6 9.45392 20.5886 7.01212 18.7882 5.21178C16.9879 3.41143 14.5461 2.4 12 2.4C9.45392 2.4 7.01212 3.41143 5.21178 5.21178C3.41143 7.01212 2.4 9.45392 2.4 12C2.4 14.5461 3.41143 16.9879 5.21178 18.7882C7.01212 20.5886 9.45392 21.6 12 21.6ZM12 24C5.3724 24 0 18.6276 0 12C0 5.3724 5.3724 0 12 0C18.6276 0 24 5.3724 24 12C24 18.6276 18.6276 24 12 24Z" fill="#2D2D38"/>
</g>
<defs>
<clipPath id="clip0_2_12556">
<rect width="24" height="24" fill="white"/>
</clipPath>
</defs>
</svg>
