<svg width="24" height="24" viewBox="0 0 24 24" fill="none" xmlns="http://www.w3.org/2000/svg">
<path d="M14.608 15.2625C15.3239 14.5042 15.6818 13.5833 15.6818 12.5C15.6818 11.4167 15.3239 10.4958 14.608 9.7375C13.892 8.97917 13.0227 8.6 12 8.6C10.9773 8.6 10.108 8.97917 9.39205 9.7375C8.67614 10.4958 8.31818 11.4167 8.31818 12.5C8.31818 13.5833 8.67614 14.5042 9.39205 15.2625C10.108 16.0208 10.9773 16.4 12 16.4C13.0227 16.4 13.892 16.0208 14.608 15.2625ZM10.4352 14.1575C10.0057 13.7025 9.79091 13.15 9.79091 12.5C9.79091 11.85 10.0057 11.2975 10.4352 10.8425C10.8648 10.3875 11.3864 10.16 12 10.16C12.6136 10.16 13.1352 10.3875 13.5648 10.8425C13.9943 11.2975 14.2091 11.85 14.2091 12.5C14.2091 13.15 13.9943 13.7025 13.5648 14.1575C13.1352 14.6125 12.6136 14.84 12 14.84C11.3864 14.84 10.8648 14.6125 10.4352 14.1575ZM6.55909 17.2342C4.92273 16.0569 3.73636 14.4789 3 12.5C3.73636 10.5211 4.92273 8.94306 6.55909 7.76583C8.19545 6.58861 10.0091 6 12 6C13.9909 6 15.8045 6.58861 17.4409 7.76583C19.0773 8.94306 20.2636 10.5211 21 12.5C20.2636 14.4789 19.0773 16.0569 17.4409 17.2342C15.8045 18.4114 13.9909 19 12 19C10.0091 19 8.19545 18.4114 6.55909 17.2342ZM16.2443 15.9775C17.533 15.1181 18.5182 13.9589 19.2 12.5C18.5182 11.0411 17.533 9.88194 16.2443 9.0225C14.9557 8.16306 13.5409 7.73333 12 7.73333C10.4591 7.73333 9.04432 8.16306 7.75568 9.0225C6.46705 9.88194 5.48182 11.0411 4.8 12.5C5.48182 13.9589 6.46705 15.1181 7.75568 15.9775C9.04432 16.8369 10.4591 17.2667 12 17.2667C13.5409 17.2667 14.9557 16.8369 16.2443 15.9775Z" fill="#2D2D38"/>
</svg>
