<svg width="40" height="40" viewBox="0 0 40 40" fill="none" xmlns="http://www.w3.org/2000/svg">
<rect width="40" height="40" rx="20" fill="url(#paint0_linear_4_850)"/>
<rect width="40" height="40" rx="20" fill="url(#paint1_radial_4_850)"/>
<path fill-rule="evenodd" clip-rule="evenodd" d="M20.247 31.2464C17.9947 31.2464 16.948 30.9161 15.1287 29.5952C13.9779 31.0812 10.3338 32.2426 10.1748 30.2557C10.1748 28.7642 9.84605 27.5038 9.47341 26.1279C9.02955 24.4327 8.52539 22.5449 8.52539 19.8096C8.52539 13.2767 13.8629 8.36182 20.1867 8.36182C26.516 8.36182 31.4754 13.5188 31.4754 19.8701C31.4966 26.1232 26.473 31.213 20.247 31.2464ZM20.3401 14.0086C17.2604 13.849 14.8602 15.99 14.3286 19.3473C13.8902 22.1267 14.6684 25.5115 15.3315 25.6876C15.6493 25.7646 16.4494 25.1152 16.948 24.6144C17.7726 25.1865 18.7329 25.5301 19.7319 25.6105C22.923 25.7647 25.6496 23.3248 25.8639 20.1233C25.9886 16.9151 23.5317 14.1978 20.3401 14.0142V14.0086Z" fill="white"/>
<defs>
<linearGradient id="paint0_linear_4_850" x1="4.71388" y1="30.4214" x2="40" y2="20" gradientUnits="userSpaceOnUse">
<stop stop-color="#44CCFF"/>
<stop offset="0.662" stop-color="#5533EE"/>
<stop offset="1" stop-color="#9933DD"/>
</linearGradient>
<radialGradient id="paint1_radial_4_850" cx="0" cy="0" r="1" gradientUnits="userSpaceOnUse" gradientTransform="translate(-0.951632 -17.5674) rotate(51.356) scale(48.5407 20)">
<stop stop-color="#0000FF"/>
<stop offset="1" stop-opacity="0"/>
</radialGradient>
</defs>
</svg>
