<svg width="102" height="26" viewBox="0 0 102 26" fill="none" xmlns="http://www.w3.org/2000/svg">
<g clip-path="url(#clip0_2_14589)">
<mask id="mask0_2_14589" style="mask-type:luminance" maskUnits="userSpaceOnUse" x="0" y="0" width="102" height="26">
<path d="M102 0H0V26H102V0Z" fill="white"/>
</mask>
<g mask="url(#mask0_2_14589)">
<path d="M38.9894 0.611328L30.1895 23.6527H34.9186L36.7448 18.8404H46.0879L47.9055 23.6527H52.5987L43.8314 0.611328H38.9894ZM38.3473 14.6117L41.4262 6.50369L44.4877 14.6117H38.3473Z" fill="black"/>
<path d="M93.6292 7.17383C91.9743 7.17383 90.3569 7.6655 88.9812 8.58672C87.6055 9.50788 86.5336 10.8172 85.9007 12.3491C85.2671 13.8809 85.1019 15.5666 85.4241 17.1928C85.7471 18.819 86.5438 20.3129 87.714 21.4853C88.8835 22.6577 90.3739 23.4562 91.9968 23.7797C93.6196 24.1031 95.3019 23.9371 96.8305 23.3026C98.3585 22.6681 99.6652 21.5936 100.584 20.2149C101.504 18.8363 101.994 17.2154 101.994 15.5573C101.994 13.3338 101.113 11.2015 99.5444 9.62932C97.9755 8.05708 95.8474 7.17383 93.6292 7.17383ZM93.6292 19.6423C92.8229 19.6423 92.035 19.4028 91.3653 18.9541C90.6948 18.5053 90.1725 17.8675 89.8639 17.1212C89.5553 16.375 89.4748 15.5538 89.6325 14.7617C89.7895 13.9695 90.1773 13.2417 90.7474 12.6706C91.3175 12.0995 92.0432 11.7105 92.8338 11.5529C93.6244 11.3953 94.4437 11.4762 95.1886 11.7853C95.9327 12.0944 96.5697 12.6179 97.0176 13.2894C97.4648 13.9611 97.7037 14.7506 97.7037 15.5584C97.7051 16.0949 97.6 16.6264 97.3958 17.1222C97.191 17.6181 96.8913 18.0686 96.5124 18.448C96.1341 18.8275 95.6842 19.1283 95.1892 19.3332C94.6949 19.5381 94.1645 19.6432 93.6292 19.6423Z" fill="black"/>
<path d="M58.2329 17.7101L54.4131 7.46484H49.9023L56.0503 23.6525H60.5252L66.5634 7.46484H62.0527L58.2329 17.7101Z" fill="black"/>
<path d="M80.7513 3.16211H76.4589V7.46381H73.9492V11.3289H76.4589V18.2197C76.4589 22.1207 78.6054 23.7973 81.6245 23.7973C82.6486 23.8122 83.6645 23.6134 84.608 23.2138V19.2039C84.0946 19.3936 83.5532 19.4941 83.0063 19.5011C81.703 19.5011 80.7513 18.9905 80.7513 17.2408V11.3289H84.608V7.46381H80.7513V3.16211Z" fill="black"/>
<path d="M70.0938 6.29859C71.8218 6.29859 73.2228 4.89473 73.2228 3.16297C73.2228 1.43121 71.8218 0.0273438 70.0938 0.0273438C68.3658 0.0273438 66.9648 1.43121 66.9648 3.16297C66.9648 4.89473 68.3658 6.29859 70.0938 6.29859Z" fill="black"/>
<path d="M72.2395 7.46484H67.9473V23.6525H72.2395V7.46484Z" fill="black"/>
<path d="M8.39481 25.949C13.016 25.949 16.7623 22.1946 16.7623 17.5634C16.7623 12.9321 13.016 9.17773 8.39481 9.17773C3.77359 9.17773 0.0273438 12.9321 0.0273438 17.5634C0.0273438 22.1946 3.77359 25.949 8.39481 25.949Z" fill="#04E061"/>
<path d="M22.9097 24.892C25.7021 24.892 27.9658 22.6234 27.9658 19.8249C27.9658 17.0264 25.7021 14.7578 22.9097 14.7578C20.1172 14.7578 17.8535 17.0264 17.8535 19.8249C17.8535 22.6234 20.1172 24.892 22.9097 24.892Z" fill="#FF4053"/>
<path d="M9.99601 8.08571C11.7241 8.08571 13.1249 6.68184 13.1249 4.95008C13.1249 3.21832 11.7241 1.81445 9.99601 1.81445C8.26802 1.81445 6.86719 3.21832 6.86719 4.95008C6.86719 6.68184 8.26802 8.08571 9.99601 8.08571Z" fill="#965EEB"/>
<path d="M20.9457 13.663C24.7029 13.663 27.7487 10.6105 27.7487 6.84518C27.7487 3.07978 24.7029 0.0273438 20.9457 0.0273438C17.1884 0.0273438 14.1426 3.07978 14.1426 6.84518C14.1426 10.6105 17.1884 13.663 20.9457 13.663Z" fill="#00AAFF"/>
</g>
</g>
<defs>
<clipPath id="clip0_2_14589">
<rect width="102" height="26" fill="white"/>
</clipPath>
</defs>
</svg>
