<svg width="101" height="26" viewBox="0 0 101 26" fill="none" xmlns="http://www.w3.org/2000/svg">
<path d="M11.8856 3H15.9661V16.744C15.9661 18.0144 15.6833 19.1181 15.1176 20.0549C14.5583 20.9917 13.7797 21.7135 12.7818 22.2204C11.7839 22.7273 10.624 22.9808 9.30197 22.9808C8.12613 22.9808 7.05834 22.7722 6.0986 22.3552C5.14522 21.9317 4.38887 21.29 3.82955 20.4302C3.27023 19.564 2.99375 18.4764 3.00011 17.1675H7.10919C7.1219 17.6872 7.22677 18.1331 7.42381 18.5053C7.6272 18.871 7.90368 19.1534 8.25325 19.3523C8.60918 19.5448 9.02867 19.641 9.51172 19.641C10.0202 19.641 10.4492 19.5319 10.7988 19.3138C11.1547 19.0892 11.4248 18.762 11.6092 18.3321C11.7935 17.9021 11.8856 17.3728 11.8856 16.744V3Z" fill="url(#paint0_linear_2_14621)"/>
<path d="M25.9194 23C24.4385 23 23.1578 22.6824 22.0773 22.0472C21.0032 21.4055 20.1737 20.5136 19.589 19.3715C19.0042 18.223 18.7119 16.8916 18.7119 15.3773C18.7119 13.8502 19.0042 12.5156 19.589 11.3734C20.1737 10.2249 21.0032 9.33301 22.0773 8.69779C23.1578 8.05614 24.4385 7.73532 25.9194 7.73532C27.4004 7.73532 28.6779 8.05614 29.752 8.69779C30.8326 9.33301 31.6652 10.2249 32.2499 11.3734C32.8347 12.5156 33.127 13.8502 33.127 15.3773C33.127 16.8916 32.8347 18.223 32.2499 19.3715C31.6652 20.5136 30.8326 21.4055 29.752 22.0472C28.6779 22.6824 27.4004 23 25.9194 23ZM25.9385 19.8239C26.6122 19.8239 27.1747 19.6314 27.626 19.2464C28.0773 18.855 28.4173 18.3224 28.6461 17.6487C28.8813 16.975 28.9989 16.2082 28.9989 15.3484C28.9989 14.4886 28.8813 13.7218 28.6461 13.0481C28.4173 12.3744 28.0773 11.8418 27.626 11.4504C27.1747 11.059 26.6122 10.8633 25.9385 10.8633C25.2584 10.8633 24.6864 11.059 24.2224 11.4504C23.7648 11.8418 23.4184 12.3744 23.1832 13.0481C22.9544 13.7218 22.84 14.4886 22.84 15.3484C22.84 16.2082 22.9544 16.975 23.1832 17.6487C23.4184 18.3224 23.7648 18.855 24.2224 19.2464C24.6864 19.6314 25.2584 19.8239 25.9385 19.8239Z" fill="url(#paint1_linear_2_14621)"/>
<path d="M35.8442 22.7113V3H39.9056V10.411H40.0295C40.2075 10.0132 40.4649 9.60892 40.8018 9.19827C41.145 8.7812 41.5899 8.43471 42.1365 8.15881C42.6895 7.87648 43.3759 7.73532 44.1958 7.73532C45.2636 7.73532 46.2488 8.01765 47.1513 8.58229C48.0538 9.14052 48.7752 9.98428 49.3155 11.1136C49.8557 12.2364 50.1259 13.6448 50.1259 15.3388C50.1259 16.9878 49.8621 18.3802 49.3345 19.5159C48.8134 20.6452 48.1015 21.5018 47.199 22.0857C46.3028 22.6631 45.2986 22.9519 44.1863 22.9519C43.3981 22.9519 42.7276 22.8203 42.1746 22.5573C41.628 22.2942 41.1799 21.9637 40.8304 21.5659C40.4808 21.1617 40.2138 20.7543 40.0295 20.3436H39.8484V22.7113H35.8442ZM39.8198 15.3195C39.8198 16.1986 39.9405 16.9654 40.1821 17.6198C40.4236 18.2743 40.7732 18.7844 41.2308 19.1501C41.6884 19.5095 42.2445 19.6891 42.8992 19.6891C43.5602 19.6891 44.1195 19.5063 44.5772 19.1405C45.0348 18.7684 45.3812 18.2551 45.6163 17.6006C45.8579 16.9397 45.9786 16.1793 45.9786 15.3195C45.9786 14.4662 45.861 13.7154 45.6259 13.0674C45.3907 12.4193 45.0443 11.9124 44.5867 11.5467C44.1291 11.1809 43.5666 10.9981 42.8992 10.9981C42.2382 10.9981 41.6789 11.1745 41.2212 11.5274C40.77 11.8803 40.4236 12.3808 40.1821 13.0289C39.9405 13.6769 39.8198 14.4405 39.8198 15.3195Z" fill="url(#paint2_linear_2_14621)"/>
<path d="M52.9121 22.7113V3H57.0403V19.2753H65.411V22.7113H52.9121Z" fill="url(#paint3_linear_2_14621)"/>
<path d="M72.2443 22.9904C71.31 22.9904 70.4774 22.8268 69.7465 22.4995C69.0156 22.1659 68.4372 21.675 68.0113 21.0269C67.5918 20.3725 67.3821 19.5576 67.3821 18.5823C67.3821 17.761 67.5315 17.0712 67.8302 16.513C68.1289 15.9548 68.5357 15.5056 69.0505 15.1655C69.5653 14.8255 70.1501 14.5688 70.8047 14.3956C71.4658 14.2223 72.1585 14.1004 72.8831 14.0298C73.7348 13.94 74.4212 13.8566 74.9424 13.7796C75.4636 13.6962 75.8418 13.5743 76.077 13.4139C76.3121 13.2534 76.4297 13.016 76.4297 12.7016V12.6439C76.4297 12.0343 76.239 11.5627 75.8577 11.2291C75.4827 10.8954 74.9488 10.7286 74.256 10.7286C73.5251 10.7286 72.9435 10.8922 72.5113 11.2194C72.0791 11.5403 71.7931 11.9445 71.6533 12.4321L67.8969 12.1242C68.0876 11.2259 68.4626 10.4495 69.0219 9.795C69.5812 9.1341 70.3026 8.6272 71.1861 8.2743C72.0759 7.91498 73.1056 7.73532 74.2751 7.73532C75.0886 7.73532 75.8672 7.83157 76.6108 8.02406C77.3608 8.21655 78.025 8.51492 78.6034 8.91915C79.1882 9.32339 79.649 9.84312 79.9858 10.4783C80.3227 11.1072 80.4911 11.8611 80.4911 12.7401V22.7113H76.6395V20.6612H76.525C76.2899 21.1232 75.9753 21.5306 75.5812 21.8835C75.1871 22.23 74.7136 22.5027 74.1607 22.7016C73.6077 22.8941 72.9689 22.9904 72.2443 22.9904ZM73.4075 20.1607C74.0049 20.1607 74.5325 20.042 74.9901 19.8046C75.4477 19.5608 75.8068 19.2336 76.0674 18.8229C76.328 18.4123 76.4583 17.9471 76.4583 17.4273V15.8585C76.3312 15.9419 76.1564 16.0189 75.9339 16.0895C75.7178 16.1537 75.4731 16.2146 75.1998 16.2724C74.9265 16.3237 74.6532 16.3718 74.3799 16.4167C74.1066 16.4552 73.8587 16.4905 73.6363 16.5226C73.1596 16.5932 72.7433 16.7055 72.3874 16.8595C72.0314 17.0135 71.7549 17.222 71.5579 17.4851C71.3609 17.7417 71.2624 18.0626 71.2624 18.4475C71.2624 19.0058 71.4626 19.4325 71.863 19.7276C72.2698 20.0164 72.7846 20.1607 73.4075 20.1607Z" fill="url(#paint4_linear_2_14621)"/>
<path d="M83.7183 22.7113V3H87.7797V10.411H87.9037C88.0816 10.0132 88.3391 9.60892 88.6759 9.19827C89.0191 8.7812 89.464 8.43471 90.0107 8.15881C90.5636 7.87648 91.25 7.73532 92.07 7.73532C93.1377 7.73532 94.1229 8.01765 95.0255 8.58229C95.928 9.14052 96.6494 9.98428 97.1896 11.1136C97.7299 12.2364 98 13.6448 98 15.3388C98 16.9878 97.7362 18.3802 97.2087 19.5159C96.6875 20.6452 95.9757 21.5018 95.0731 22.0857C94.1769 22.6631 93.1727 22.9519 92.0604 22.9519C91.2723 22.9519 90.6017 22.8203 90.0488 22.5573C89.5022 22.2942 89.0541 21.9637 88.7045 21.5659C88.3549 21.1617 88.088 20.7543 87.9037 20.3436H87.7225V22.7113H83.7183ZM87.6939 15.3195C87.6939 16.1986 87.8147 16.9654 88.0562 17.6198C88.2977 18.2743 88.6473 18.7844 89.1049 19.1501C89.5626 19.5095 90.1187 19.6891 90.7734 19.6891C91.4344 19.6891 91.9937 19.5063 92.4513 19.1405C92.9089 18.7684 93.2553 18.2551 93.4905 17.6006C93.732 16.9397 93.8528 16.1793 93.8528 15.3195C93.8528 14.4662 93.7352 13.7154 93.5 13.0674C93.2649 12.4193 92.9185 11.9124 92.4608 11.5467C92.0032 11.1809 91.4407 10.9981 90.7734 10.9981C90.1123 10.9981 89.553 11.1745 89.0954 11.5274C88.6441 11.8803 88.2977 12.3808 88.0562 13.0289C87.8147 13.6769 87.6939 14.4405 87.6939 15.3195Z" fill="url(#paint5_linear_2_14621)"/>
<defs>
<linearGradient id="paint0_linear_2_14621" x1="2.37077" y1="13.1129" x2="99.6921" y2="13.1129" gradientUnits="userSpaceOnUse">
<stop stop-color="#003466"/>
<stop offset="1" stop-color="#3B6488"/>
</linearGradient>
<linearGradient id="paint1_linear_2_14621" x1="2.37077" y1="13.1129" x2="99.6921" y2="13.1129" gradientUnits="userSpaceOnUse">
<stop stop-color="#003466"/>
<stop offset="1" stop-color="#3B6488"/>
</linearGradient>
<linearGradient id="paint2_linear_2_14621" x1="2.37077" y1="13.1129" x2="99.6921" y2="13.1129" gradientUnits="userSpaceOnUse">
<stop stop-color="#003466"/>
<stop offset="1" stop-color="#3B6488"/>
</linearGradient>
<linearGradient id="paint3_linear_2_14621" x1="2.37077" y1="13.1129" x2="99.6921" y2="13.1129" gradientUnits="userSpaceOnUse">
<stop stop-color="#003466"/>
<stop offset="1" stop-color="#3B6488"/>
</linearGradient>
<linearGradient id="paint4_linear_2_14621" x1="2.37077" y1="13.1129" x2="99.6921" y2="13.1129" gradientUnits="userSpaceOnUse">
<stop stop-color="#003466"/>
<stop offset="1" stop-color="#3B6488"/>
</linearGradient>
<linearGradient id="paint5_linear_2_14621" x1="2.37077" y1="13.1129" x2="99.6921" y2="13.1129" gradientUnits="userSpaceOnUse">
<stop stop-color="#003466"/>
<stop offset="1" stop-color="#3B6488"/>
</linearGradient>
</defs>
</svg>
