<svg width="49" height="82" viewBox="0 0 49 82" fill="none" xmlns="http://www.w3.org/2000/svg">
<path d="M6.20824 9.43213L0.237876 19.7884L12.5258 41.1685L0 61.9055L6.25691 72.5772L24.3154 41.0701L6.20824 9.43213Z" fill="url(#paint0_linear_4_801)"/>
<path fill-rule="evenodd" clip-rule="evenodd" d="M32.4768 31.7892H41.6793L48.648 21.3108L26.2852 21.0195L32.4768 31.7892Z" fill="#44AB2E"/>
<path fill-rule="evenodd" clip-rule="evenodd" d="M31.804 50.9243H41.4416L48.7092 60.8455L25.9551 60.8471L31.804 50.9243Z" fill="#17621C"/>
<path fill-rule="evenodd" clip-rule="evenodd" d="M6.20117 9.4209H17.4587H42.5115L48.5366 19.5483H23.3706L35.9066 41.0705H24.0149L6.20117 9.4209Z" fill="#0A7522"/>
<path fill-rule="evenodd" clip-rule="evenodd" d="M6.25586 72.5774H17.5138H42.5662L48.5916 62.45H23.4257L35.9063 41.0703H24.0146L6.25586 72.5774Z" fill="#B1C900"/>
<path fill-rule="evenodd" clip-rule="evenodd" d="M42.508 9.4209L45.3024 14.1179L48.6043 19.5353H41.4105H34.2168L42.508 9.4209Z" fill="#1B661D"/>
<path fill-rule="evenodd" clip-rule="evenodd" d="M34.2514 19.5428L25.2148 9.4209L35.3489 9.4287H42.5427L34.2514 19.5428Z" fill="#007324"/>
<path fill-rule="evenodd" clip-rule="evenodd" d="M34.2562 19.5428L6.50586 9.4209L17.9493 9.42358H25.1431L34.2562 19.5428Z" fill="#006E22"/>
<path fill-rule="evenodd" clip-rule="evenodd" d="M6.20117 9.4209L23.3706 19.5483L34.2512 19.5443L18.517 13.8664L6.20117 9.4209Z" fill="#0C651E"/>
<path fill-rule="evenodd" clip-rule="evenodd" d="M23.3681 19.5489L17.5384 29.5685L6.20508 9.43359L23.3681 19.5489Z" fill="#006E22"/>
<path fill-rule="evenodd" clip-rule="evenodd" d="M24.0111 41.0705L32.3065 34.8955L17.5371 29.5679L24.0111 41.0705Z" fill="#127522"/>
<path fill-rule="evenodd" clip-rule="evenodd" d="M35.9038 41.0705L32.3071 34.8955L24.0117 41.0705H35.9038Z" fill="#005C1C"/>
<path fill-rule="evenodd" clip-rule="evenodd" d="M18.9141 50.12L35.9071 41.0703H25.0496H24.015L18.9141 50.12Z" fill="#007022"/>
<path fill-rule="evenodd" clip-rule="evenodd" d="M26.8306 56.6179L18.9141 50.12L35.9071 41.0703L26.8306 56.6179Z" fill="#077F25"/>
<path fill-rule="evenodd" clip-rule="evenodd" d="M12.7617 61.0352L26.8299 56.6186L18.9134 50.1206L12.7617 61.0352Z" fill="#038B29"/>
<path fill-rule="evenodd" clip-rule="evenodd" d="M23.4255 62.4503L26.8299 56.6182L12.7617 61.0349L23.4255 62.4503Z" fill="#52A022"/>
<path fill-rule="evenodd" clip-rule="evenodd" d="M6.55687 72.578L23.427 62.4506L12.7632 61.0352L6.40039 72.3234L6.55687 72.578Z" fill="#038B29"/>
<path fill-rule="evenodd" clip-rule="evenodd" d="M30.9982 72.5786L23.4259 62.4512L6.27148 72.5786L13.7341 72.4892L30.9982 72.5786Z" fill="#14A030"/>
<path fill-rule="evenodd" clip-rule="evenodd" d="M40.6207 62.5312L30.9983 72.5778L23.4863 62.5312H40.6207Z" fill="#109A2E"/>
<path fill-rule="evenodd" clip-rule="evenodd" d="M48.5897 62.4512L30.9961 72.5786L40.6185 62.532L48.5897 62.4512Z" fill="#229026"/>
<path fill-rule="evenodd" clip-rule="evenodd" d="M42.5643 72.5786L48.5897 62.4512L30.9961 72.5786H42.5643Z" fill="#32A829"/>
<defs>
<linearGradient id="paint0_linear_4_801" x1="-1435.95" y1="385.688" x2="-1496.91" y2="385.688" gradientUnits="userSpaceOnUse">
<stop stop-color="#6FB41E"/>
<stop offset="0.56" stop-color="#60B122"/>
<stop offset="1" stop-color="#4CAC26"/>
</linearGradient>
</defs>
</svg>
