<svg width="60" height="68" viewBox="0 0 60 68" fill="none" xmlns="http://www.w3.org/2000/svg">
<g clip-path="url(#clip0_15_2472)">
<g filter="url(#filter0_f_15_2472)">
<path d="M30.51 56.523C30.5041 56.6516 30.4488 56.7729 30.3557 56.8618C30.2625 56.9506 30.1387 57.0001 30.01 57C29.72 57 29.5 56.79 29.49 56.523C29.345 53.355 27.734 51.306 24.658 50.376C14.53 47.968 7 38.863 7 28C7 15.297 17.297 5 30 5C42.703 5 53 15.297 53 28C53 38.863 45.47 47.968 35.342 50.376C32.266 51.306 30.655 53.356 30.512 56.523H30.51Z" fill="#FF4433"/>
</g>
<path d="M30.51 56.523C30.5041 56.6516 30.4488 56.7729 30.3557 56.8618C30.2625 56.9506 30.1387 57.0001 30.01 57C29.72 57 29.5 56.79 29.49 56.523C29.345 53.355 27.734 51.306 24.658 50.376C14.53 47.968 7 38.863 7 28C7 15.297 17.297 5 30 5C42.703 5 53 15.297 53 28C53 38.863 45.47 47.968 35.342 50.376C32.266 51.306 30.655 53.356 30.512 56.523H30.51Z" fill="#FF4433"/>
<path d="M30 68C27.79 68 26 66.21 26 64C26 61.79 27.79 60 30 60C32.21 60 34 61.79 34 64C34 66.21 32.21 68 30 68Z" fill="white"/>
<path fill-rule="evenodd" clip-rule="evenodd" d="M29.9997 66C30.266 66.006 30.5309 65.9588 30.7787 65.861C31.0266 65.7633 31.2524 65.617 31.4429 65.4308C31.6334 65.2446 31.7848 65.0222 31.8882 64.7766C31.9916 64.5311 32.0449 64.2674 32.0449 64.001C32.045 63.7346 31.9918 63.4708 31.8886 63.2253C31.7853 62.9797 31.634 62.7572 31.4436 62.5709C31.2532 62.3846 31.0274 62.2382 30.7797 62.1403C30.5319 62.0425 30.267 61.9951 30.0007 62.001C29.4781 62.0125 28.9809 62.2282 28.6153 62.6018C28.2498 62.9754 28.0451 63.4773 28.0449 64C28.0448 64.5227 28.2493 65.0246 28.6146 65.3984C28.98 65.7722 29.4772 65.9882 29.9997 66Z" fill="#FF4433"/>
<path d="M34 19C34 17.9391 33.5786 16.9217 32.8284 16.1716C32.0783 15.4214 31.0609 15 30 15C28.9391 15 27.9217 15.4214 27.1716 16.1716C26.4214 16.9217 26 17.9391 26 19V20H27V19C27 17.895 28 16.4 30 16.4C32 16.4 33 17.895 33 19V20H34V19Z" fill="white"/>
<path fill-rule="evenodd" clip-rule="evenodd" d="M20.9974 21.802C20.9984 21.519 20.9994 21.378 21.0544 21.272C21.1022 21.1781 21.1785 21.1018 21.2724 21.054C21.3794 21 21.5194 21 21.7994 21H38.1994C38.4794 21 38.6194 21 38.7264 21.054C38.8204 21.102 38.8964 21.178 38.9444 21.272C38.9994 21.378 39.0004 21.519 39.0014 21.802C39.0414 30.052 39.6794 35.345 39.9504 37.229C39.9904 37.506 40.0104 37.644 39.9734 37.756C39.9405 37.8545 39.8775 37.9401 39.7934 38.001C39.6994 38.071 39.5664 38.094 39.3014 38.14C37.7034 38.415 33.8514 39 29.9994 39C26.1474 39 22.2954 38.415 20.6974 38.14C20.4324 38.094 20.2994 38.071 20.2044 38.001C20.1207 37.9399 20.0581 37.8543 20.0254 37.756C19.9884 37.644 20.0084 37.506 20.0484 37.229C20.3194 35.345 20.9584 30.052 20.9984 21.802H20.9974ZM26.9994 23.5C26.9994 23.3674 26.9467 23.2402 26.8529 23.1464C26.7592 23.0527 26.632 23 26.4994 23H25.4994C25.3668 23 25.2396 23.0527 25.1458 23.1464C25.0521 23.2402 24.9994 23.3674 24.9994 23.5C24.9994 23.6326 25.0521 23.7598 25.1458 23.8536C25.2396 23.9473 25.3668 24 25.4994 24H25.9994V24.5C25.9994 25.5609 26.4208 26.5783 27.171 27.3284C27.9211 28.0786 28.9385 28.5 29.9994 28.5C31.0603 28.5 32.0777 28.0786 32.8278 27.3284C33.578 26.5783 33.9994 25.5609 33.9994 24.5V24H34.4994C34.632 24 34.7592 23.9473 34.8529 23.8536C34.9467 23.7598 34.9994 23.6326 34.9994 23.5C34.9994 23.3674 34.9467 23.2402 34.8529 23.1464C34.7592 23.0527 34.632 23 34.4994 23H33.4994C33.3668 23 33.2396 23.0527 33.1458 23.1464C33.0521 23.2402 32.9994 23.3674 32.9994 23.5V24C32.9994 25.38 31.9994 27 29.9994 27C27.9994 27 26.9994 25.38 26.9994 24V23.5Z" fill="white"/>
</g>
<defs>
<filter id="filter0_f_15_2472" x="1" y="-1" width="58" height="64" filterUnits="userSpaceOnUse" color-interpolation-filters="sRGB">
<feFlood flood-opacity="0" result="BackgroundImageFix"/>
<feBlend mode="normal" in="SourceGraphic" in2="BackgroundImageFix" result="shape"/>
<feGaussianBlur stdDeviation="3" result="effect1_foregroundBlur_15_2472"/>
</filter>
<clipPath id="clip0_15_2472">
<rect width="60" height="68" fill="white"/>
</clipPath>
</defs>
</svg>
