<?xml version="1.0" encoding="utf-8"?><svg xmlns="http://www.w3.org/2000/svg" xmlns:xlink="http://www.w3.org/1999/xlink"><symbol fill="none" viewBox="0 0 24 24" id="arenda" xmlns="http://www.w3.org/2000/svg"><g clip-path="url(#aclip0_2_4124)"><path d="M1.44 21.705c-.038 0-.077 0-.097-.02a.333.333 0 01-.232-.193L.046 19.517c-.097-.194-.039-.426.155-.523l.64-.348-.35-.736a.39.39 0 01.136-.484l.697-.446-.368-.774a.39.39 0 01.136-.484l.716-.484-.368-.814a.377.377 0 01-.019-.252l.736-2.807C.995 10.3.53 8.615.975 7.008A4.269 4.269 0 013.01 4.413a4.284 4.284 0 013.272-.388 4.283 4.283 0 012.963 5.306c-.445 1.627-1.781 2.924-3.292 3.234l-2.207 7.707c-.02.097-.097.175-.175.233l-1.936 1.123a.278.278 0 01-.194.077zm-.542-2.207l.697 1.278 1.453-.852 2.226-7.785a.372.372 0 01.31-.271c1.317-.174 2.498-1.297 2.905-2.73A3.511 3.511 0 006.05 4.8a3.56 3.56 0 00-2.672.31A3.55 3.55 0 001.71 7.22c-.387 1.376.059 2.828 1.124 3.7a.402.402 0 01.135.406l-.755 2.904.445.988a.397.397 0 01-.135.484l-.717.465.368.755a.39.39 0 01-.135.484l-.698.446.368.755a.375.375 0 01-.155.503l-.658.388z" fill="currentColor"/><path d="M5.488 8.15c-.117 0-.252-.02-.368-.058a1.444 1.444 0 01-.833-.64 1.35 1.35 0 01-.116-1.025 1.393 1.393 0 011.684-.95c.349.098.64.33.833.64.174.31.213.678.116 1.026A1.36 1.36 0 015.488 8.15zm0-1.936c-.252 0-.504.174-.562.426a.594.594 0 00.058.445.602.602 0 00.348.271c.31.097.64-.097.737-.406a.594.594 0 00-.059-.446.6.6 0 00-.348-.271c-.078-.02-.116-.02-.174-.02zm3.33 3.563a3.686 3.686 0 01-2.265-.775.396.396 0 01-.078-.542.396.396 0 01.542-.078c.523.407 1.143.6 1.801.6.523 0 1.046-.135 1.491-.406a.376.376 0 01.523.136.375.375 0 01-.136.523 3.42 3.42 0 01-1.878.542z" fill="currentColor"/><path d="M5.507 6.214h-.02a.402.402 0 01-.367-.407A3.718 3.718 0 018.818 2.36a3.724 3.724 0 013.621 2.924.394.394 0 01-.29.465.394.394 0 01-.465-.29 2.937 2.937 0 00-2.866-2.344c-1.53 0-2.827 1.2-2.924 2.73-.02.194-.194.369-.387.369z" fill="currentColor"/><path d="M17.92 18.84a.382.382 0 01-.272-.117l-6.583-6.584c-.155-.155-.504-.561-.504-1.046l-.407-4.28v-.038c0-.523.155-.91.504-1.278.349-.348.736-.503 1.181-.503h.136l4.28.387c.503 0 .89.368 1.045.503l6.584 6.584a.374.374 0 010 .543l-5.693 5.712c-.058.078-.155.116-.271.116zM10.928 6.755l.406 4.28v.038c0 .155.117.349.291.523l6.313 6.313 5.132-5.151-6.313-6.313c-.175-.174-.388-.29-.523-.29h-.039l-4.357-.407c-.232 0-.426.097-.62.29-.212.213-.29.407-.29.717z" fill="currentColor"/><path d="M14.995 12.042a.383.383 0 01-.27-.116.375.375 0 010-.542l1.878-1.878a.374.374 0 01.542 0 .374.374 0 010 .542l-1.878 1.878a.383.383 0 01-.271.116zm2.189 2.188a.382.382 0 01-.271-.116.374.374 0 010-.542l1.878-1.878a.375.375 0 01.542 0 .374.374 0 010 .542l-1.878 1.878a.383.383 0 01-.271.116z" fill="currentColor"/><path d="M5.488 6.214c-.252 0-.504.174-.562.426a.594.594 0 00.058.445.602.602 0 00.348.271c.31.097.64-.097.737-.406a.594.594 0 00-.059-.446.6.6 0 00-.348-.271c-.078-.02-.116-.02-.174-.02zm0 0h.019c.194 0 .368-.175.387-.368.097-1.53 1.394-2.73 2.924-2.73 1.375 0 2.576.968 2.866 2.342.058.213.252.33.465.29a.394.394 0 00.29-.464A3.724 3.724 0 008.82 2.36a3.718 3.718 0 00-3.7 3.447c0 .213.155.387.369.407zM1.44 21.705c-.038 0-.077 0-.097-.02a.333.333 0 01-.232-.193L.046 19.517c-.097-.194-.039-.426.155-.523l.64-.348-.35-.736a.39.39 0 01.136-.484l.697-.446-.368-.774a.39.39 0 01.136-.484l.716-.484-.368-.814a.377.377 0 01-.019-.252l.736-2.807C.995 10.3.53 8.615.975 7.008A4.269 4.269 0 013.01 4.413a4.284 4.284 0 013.272-.388 4.283 4.283 0 012.963 5.306c-.445 1.627-1.781 2.924-3.292 3.234l-2.207 7.707c-.02.097-.097.175-.175.233l-1.936 1.123a.278.278 0 01-.194.077zm-.542-2.207l.697 1.278 1.453-.852 2.226-7.785a.372.372 0 01.31-.271c1.317-.174 2.498-1.297 2.905-2.73A3.511 3.511 0 006.05 4.8a3.56 3.56 0 00-2.672.31A3.55 3.55 0 001.71 7.22c-.387 1.376.059 2.828 1.124 3.7a.402.402 0 01.135.406l-.755 2.904.445.988a.397.397 0 01-.135.484l-.717.465.368.755a.39.39 0 01-.135.484l-.698.446.368.755a.375.375 0 01-.155.503l-.658.388zM5.488 8.15c-.117 0-.252-.02-.368-.058a1.444 1.444 0 01-.833-.64 1.35 1.35 0 01-.116-1.025 1.393 1.393 0 011.684-.95c.349.098.64.33.833.64.174.31.213.678.116 1.026A1.36 1.36 0 015.488 8.15zm3.33 1.627a3.686 3.686 0 01-2.265-.775.396.396 0 01-.078-.542.396.396 0 01.542-.078c.523.407 1.143.6 1.801.6.523 0 1.046-.135 1.491-.406a.376.376 0 01.523.136.375.375 0 01-.136.523 3.42 3.42 0 01-1.878.542zm9.101 9.062a.382.382 0 01-.27-.116l-6.585-6.584c-.154-.155-.503-.561-.503-1.046l-.407-4.28v-.038c0-.523.155-.91.504-1.278.349-.348.736-.503 1.181-.503h.136l4.28.387c.503 0 .89.368 1.045.503l6.584 6.584a.374.374 0 010 .543l-5.693 5.712c-.058.078-.155.116-.271.116zM10.93 6.756l.406 4.28v.038c0 .155.117.349.291.523l6.313 6.313 5.132-5.151-6.313-6.313c-.175-.174-.388-.29-.523-.29h-.039l-4.357-.407c-.232 0-.426.097-.62.29-.212.213-.29.407-.29.717zm4.066 5.286a.383.383 0 01-.27-.116.375.375 0 010-.542l1.878-1.878a.374.374 0 01.542 0 .374.374 0 010 .542l-1.878 1.878a.383.383 0 01-.271.116zm2.189 2.188a.382.382 0 01-.271-.116.374.374 0 010-.542l1.878-1.878a.375.375 0 01.542 0 .374.374 0 010 .542l-1.878 1.878a.383.383 0 01-.271.116z" stroke="currentColor" stroke-width=".75"/></g><defs><clipPath id="aclip0_2_4124"><path fill="currentColor" d="M0 0h24v24H0z"/></clipPath></defs></symbol><symbol fill="none" viewBox="0 0 24 24" id="arrow_bottom" xmlns="http://www.w3.org/2000/svg"><path d="M18 10l-6 6-6-6 1.4-1.4 4.6 4.6 4.6-4.6L18 10z" fill="currentColor"/></symbol><symbol fill="none" viewBox="0 0 24 24" id="arrow_left" xmlns="http://www.w3.org/2000/svg"><path d="M7.825 13H20v-2H7.825l5.6-5.6L12 4l-8 8 8 8 1.425-1.4-5.6-5.6z" fill="currentColor"/></symbol><symbol fill="none" viewBox="0 0 24 24" id="arrow_long_left" xmlns="http://www.w3.org/2000/svg"><path d="M10 18l1.4-1.45L7.85 13H20v-2H7.85l3.55-3.55L10 6l-6 6 6 6z" fill="currentColor"/></symbol><symbol fill="none" viewBox="0 0 24 24" id="arrow_right" xmlns="http://www.w3.org/2000/svg"><path d="M16.175 13H4v-2h12.175l-5.6-5.6L12 4l8 8-8 8-1.425-1.4 5.6-5.6z" fill="currentColor"/></symbol><symbol fill="none" viewBox="0 0 24 24" id="catalog" xmlns="http://www.w3.org/2000/svg"><path d="M13 21v-8h8v8h-8zm0-10V3h8v8h-8zM3 11V3h8v8H3zm0 10v-8h8v8H3z" fill="currentColor"/></symbol><symbol fill="none" viewBox="0 0 24 24" id="check" xmlns="http://www.w3.org/2000/svg"><path d="M9.218 19L21.652 6M9.217 19L3 12.5" stroke="currentColor" stroke-width="2.4" stroke-linecap="round"/></symbol><symbol fill="none" viewBox="0 0 24 24" id="copy" xmlns="http://www.w3.org/2000/svg"><path d="M9 18c-.55 0-1.02-.196-1.412-.587A1.926 1.926 0 017 16V4c0-.55.196-1.02.588-1.413A1.926 1.926 0 019 2h9c.55 0 1.02.196 1.413.587.39.393.587.863.587 1.413v12c0 .55-.196 1.02-.587 1.413A1.926 1.926 0 0118 18H9zm0-2h9V4H9v12zm-4 6c-.55 0-1.02-.196-1.413-.587A1.926 1.926 0 013 20V6h2v14h11v2H5z" fill="currentColor"/></symbol><symbol fill="none" viewBox="0 0 24 24" id="map" xmlns="http://www.w3.org/2000/svg"><path d="M4.35 20.7a.903.903 0 01-.925-.113A.988.988 0 013 19.75v-14c0-.217.063-.408.188-.575A1.13 1.13 0 013.7 4.8L9 3l6 2.1 4.65-1.8a.903.903 0 01.925.113.988.988 0 01.425.837v8.425a5.595 5.595 0 00-.887-1.05A6.305 6.305 0 0019 10.8V5.7l-3 1.15V10c-.35 0-.692.03-1.025.088a5.61 5.61 0 00-.975.262v-3.5l-4-1.4v13.075L4.35 20.7zM5 18.3l3-1.15V5.45l-3 1V18.3zm12.413-.8c.375-.333.57-.833.587-1.5.017-.567-.17-1.042-.563-1.425A1.977 1.977 0 0016 14c-.567 0-1.042.192-1.425.575-.383.383-.575.858-.575 1.425 0 .567.192 1.042.575 1.425.383.383.858.575 1.425.575.567 0 1.038-.167 1.413-.5zM16 20c-1.1 0-2.042-.392-2.825-1.175C12.392 18.042 12 17.1 12 16s.392-2.042 1.175-2.825C13.958 12.392 14.9 12 16 12s2.042.392 2.825 1.175C19.608 13.958 20 14.9 20 16c0 .383-.046.746-.137 1.087-.092.342-.23.663-.413.963L22 20.6 20.6 22l-2.55-2.55c-.3.183-.62.32-.963.413A4.18 4.18 0 0116 20z" fill="currentColor"/></symbol><symbol fill="none" viewBox="0 0 24 24" id="max" xmlns="http://www.w3.org/2000/svg"><path fill-rule="evenodd" clip-rule="evenodd" d="M12.02 16.251c-.854 0-1.25-.125-1.94-.626-.436.564-1.817 1.004-1.877.25 0-.565-.124-1.042-.266-1.563-.168-.643-.359-1.358-.359-2.395 0-2.475 2.023-4.338 4.42-4.338 2.398 0 4.277 1.954 4.277 4.361.008 2.37-1.896 4.298-4.255 4.311zm.035-6.532c-1.167-.06-2.076.75-2.278 2.023-.166 1.053.129 2.336.38 2.403.12.029.424-.217.613-.407.312.217.676.347 1.055.378a2.226 2.226 0 002.324-2.08 2.228 2.228 0 00-2.094-2.315v-.002z" fill="currentColor"/><path d="M12 21.6a9.6 9.6 0 100-19.2 9.6 9.6 0 000 19.2zm0 2.4C5.372 24 0 18.628 0 12S5.372 0 12 0s12 5.372 12 12-5.372 12-12 12z" fill="currentColor"/></symbol><symbol fill="none" viewBox="0 0 24 24" id="ok" xmlns="http://www.w3.org/2000/svg"><g clip-path="url(#kclip0_2_12556)" fill="currentColor"><path d="M11.53 13.996c-.77-.08-1.462-.272-2.057-.74-.074-.058-.15-.114-.217-.18-.26-.25-.287-.539-.08-.835.175-.254.47-.322.778-.177.06.03.117.064.17.102 1.107.766 2.628.787 3.74.034a1.02 1.02 0 01.363-.19.57.57 0 01.655.264c.164.267.16.527-.04.734a3.017 3.017 0 01-1.087.708c-.388.152-.814.228-1.235.28.065.07.095.103.135.143.57.578 1.145 1.154 1.715 1.734.194.198.235.443.128.673-.117.25-.38.416-.635.398a.617.617 0 01-.402-.207c-.431-.437-.87-.866-1.293-1.31-.123-.13-.183-.106-.291.006-.434.45-.876.893-1.32 1.334-.199.197-.436.233-.667.12a.68.68 0 01-.39-.626.627.627 0 01.21-.42l1.694-1.709c.037-.038.072-.078.127-.136z"/><path d="M11.989 12a2.503 2.503 0 01-2.481-2.506A2.506 2.506 0 0112.018 7a2.503 2.503 0 012.49 2.532c-.007 1.366-1.137 2.473-2.52 2.468zm1.244-2.502a1.218 1.218 0 00-1.224-1.221 1.22 1.22 0 00-1.226 1.235 1.218 1.218 0 001.233 1.212 1.216 1.216 0 001.217-1.226z"/><path d="M12 21.6a9.6 9.6 0 100-19.2 9.6 9.6 0 000 19.2zm0 2.4C5.372 24 0 18.628 0 12S5.372 0 12 0s12 5.372 12 12-5.372 12-12 12z"/></g><defs><clipPath id="kclip0_2_12556"><path fill="currentColor" d="M0 0h24v24H0z"/></clipPath></defs></symbol><symbol fill="none" viewBox="0 0 24 24" id="phone" xmlns="http://www.w3.org/2000/svg"><path d="M19.95 21c-2.083 0-4.142-.454-6.175-1.363-2.033-.908-3.883-2.195-5.55-3.862-1.667-1.667-2.954-3.517-3.862-5.55C3.454 8.192 3 6.133 3 4.05c0-.3.1-.55.3-.75.2-.2.45-.3.75-.3H8.1a.93.93 0 01.625.237.914.914 0 01.325.563l.65 3.5a1.77 1.77 0 01-.025.675c-.05.183-.142.342-.275.475L6.975 10.9c.333.617.73 1.213 1.188 1.787.458.575.962 1.13 1.512 1.663.517.517 1.058.996 1.625 1.438.567.441 1.167.845 1.8 1.212l2.35-2.35a1.4 1.4 0 01.588-.338 1.61 1.61 0 01.712-.062l3.45.7c.233.067.425.188.575.363A.88.88 0 0121 15.9v4.05c0 .3-.1.55-.3.75-.2.2-.45.3-.75.3z" fill="currentColor"/></symbol><symbol fill="none" viewBox="0 0 10 10" id="plus" xmlns="http://www.w3.org/2000/svg"><path d="M5.5 9.5H4v-4H0V4h4V0h1.5v4h4v1.5h-4v4z" fill="currentColor"/></symbol><symbol fill="none" viewBox="0 0 24 24" id="price_list" xmlns="http://www.w3.org/2000/svg"><path d="M8.827 12.442h.884v-2h1.116a.857.857 0 00.63-.254.853.853 0 00.254-.63V8.442a.857.857 0 00-.253-.63.857.857 0 00-.631-.254h-2v4.884zm.884-2.884V8.442h1.116v1.116H9.711zm3.02 2.884h1.961a.856.856 0 00.631-.254.853.853 0 00.254-.63V8.442a.857.857 0 00-.254-.63.856.856 0 00-.63-.254H12.73v4.884zm.884-.884V8.442h1.077v3.116h-1.077zm3.077.884h.885v-2h1.192v-.884h-1.192V8.442h1.192v-.884h-2.077v4.884zM8.058 17.5c-.505 0-.933-.175-1.283-.525a1.745 1.745 0 01-.525-1.283V4.308c0-.505.175-.933.525-1.283.35-.35.778-.525 1.283-.525h11.384c.505 0 .933.175 1.283.525.35.35.525.778.525 1.283v11.384c0 .505-.175.933-.525 1.283-.35.35-.778.525-1.283.525H8.058zm0-1.5h11.384a.294.294 0 00.212-.096.294.294 0 00.096-.212V4.308a.294.294 0 00-.096-.212.294.294 0 00-.212-.096H8.058a.294.294 0 00-.212.096.294.294 0 00-.096.212v11.384c0 .077.032.148.096.212a.294.294 0 00.212.096zm-3.5 5c-.505 0-.933-.175-1.283-.525a1.745 1.745 0 01-.525-1.283V6.308h1.5v12.884c0 .077.032.148.096.212a.294.294 0 00.212.096h12.884V21H4.558z" fill="currentColor"/></symbol><symbol fill="none" viewBox="0 0 24 24" id="search" xmlns="http://www.w3.org/2000/svg"><path d="M19.6 21l-6.3-6.3A6.096 6.096 0 019.5 16c-1.817 0-3.354-.63-4.612-1.887C3.629 12.854 3 11.317 3 9.5c0-1.817.63-3.354 1.888-4.612C6.146 3.629 7.683 3 9.5 3c1.817 0 3.354.63 4.613 1.888C15.37 6.146 16 7.683 16 9.5a6.096 6.096 0 01-1.3 3.8l6.3 6.3-1.4 1.4zM9.5 14c1.25 0 2.313-.438 3.188-1.313C13.562 11.813 14 10.75 14 9.5c0-1.25-.438-2.313-1.313-3.188C11.813 5.438 10.75 5 9.5 5c-1.25 0-2.313.438-3.188 1.313S5 8.25 5 9.5c0 1.25.438 2.313 1.313 3.188C7.188 13.562 8.25 14 9.5 14z" fill="currentColor"/></symbol><symbol fill="none" viewBox="0 0 24 24" id="sort" xmlns="http://www.w3.org/2000/svg"><path d="M3 18v-2h6v2H3zm0-5v-2h12v2H3zm0-5V6h18v2H3z" fill="currentColor"/></symbol><symbol fill="none" viewBox="0 0 24 24" id="star" xmlns="http://www.w3.org/2000/svg"><path d="M5.825 21l1.625-7.025L2 9.25l7.2-.625L12 2l2.8 6.625 7.2.625-5.45 4.725L18.175 21 12 17.275 5.825 21z" fill="currentColor"/></symbol><symbol fill="none" viewBox="0 0 24 24" id="tg" xmlns="http://www.w3.org/2000/svg"><g clip-path="url(#rclip0_2_12554)"><path d="M24 12a12 12 0 11-24 0 12 12 0 0124 0zM12.43 8.859a583.248 583.248 0 00-6.998 3.015c-.568.225-.866.447-.893.663-.045.364.413.508 1.035.705l.263.082c.612.2 1.437.433 1.864.441.39.01.824-.15 1.302-.48 3.268-2.206 4.956-3.32 5.061-3.345.075-.018.18-.038.249.024.07.062.063.18.055.212-.045.194-1.84 1.861-2.768 2.726-.29.27-.495.46-.537.504-.093.094-.187.187-.283.278-.57.55-.995.96.023 1.633.49.323.883.589 1.275.856.426.291.852.58 1.404.944.14.09.275.187.405.28.496.354.945.672 1.495.621.322-.03.653-.33.821-1.23.398-2.126 1.179-6.729 1.359-8.627a2.14 2.14 0 00-.02-.472.506.506 0 00-.17-.325.789.789 0 00-.465-.14c-.45.007-1.145.249-4.476 1.635z" fill="currentColor"/></g><defs><clipPath id="rclip0_2_12554"><path fill="currentColor" d="M0 0h24v24H0z"/></clipPath></defs></symbol><symbol fill="none" viewBox="0 0 24 24" id="time" xmlns="http://www.w3.org/2000/svg"><path d="M15.3 16.7l1.4-1.4-3.7-3.7V7h-2v5.4l4.3 4.3zM12 22a9.738 9.738 0 01-3.9-.788 10.099 10.099 0 01-3.175-2.137c-.9-.9-1.612-1.958-2.137-3.175A9.738 9.738 0 012 12a9.74 9.74 0 01.788-3.9 10.099 10.099 0 012.137-3.175c.9-.9 1.958-1.612 3.175-2.137A9.738 9.738 0 0112 2a9.74 9.74 0 013.9.788 10.098 10.098 0 013.175 2.137c.9.9 1.613 1.958 2.137 3.175A9.738 9.738 0 0122 12a9.738 9.738 0 01-.788 3.9 10.098 10.098 0 01-2.137 3.175c-.9.9-1.958 1.613-3.175 2.137A9.738 9.738 0 0112 22z" fill="currentColor"/></symbol><symbol fill="none" viewBox="0 0 24 24" id="views" xmlns="http://www.w3.org/2000/svg"><path d="M14.608 15.262c.716-.758 1.074-1.679 1.074-2.762s-.358-2.004-1.074-2.762C13.892 8.979 13.023 8.6 12 8.6c-1.023 0-1.892.38-2.608 1.138-.716.758-1.074 1.679-1.074 2.762s.358 2.004 1.074 2.762c.716.759 1.585 1.138 2.608 1.138 1.023 0 1.892-.38 2.608-1.137zm-4.173-1.104c-.43-.455-.644-1.008-.644-1.658 0-.65.215-1.203.644-1.658.43-.455.951-.682 1.565-.682s1.135.227 1.565.682c.43.455.644 1.008.644 1.658 0 .65-.215 1.203-.644 1.658-.43.455-.951.682-1.565.682a2.072 2.072 0 01-1.565-.682zM6.56 17.233C4.923 16.057 3.736 14.48 3 12.5c.736-1.979 1.923-3.557 3.56-4.734C8.194 6.589 10.01 6 12 6c1.99 0 3.805.589 5.44 1.766C19.078 8.943 20.265 10.52 21 12.5c-.736 1.979-1.923 3.557-3.56 4.734C15.805 18.411 13.99 19 12 19c-1.99 0-3.805-.589-5.44-1.766zm9.685-1.257c1.289-.859 2.274-2.018 2.956-3.477-.682-1.459-1.667-2.618-2.956-3.477A7.49 7.49 0 0012 7.733a7.49 7.49 0 00-4.244 1.29C6.467 9.882 5.482 11.04 4.8 12.5c.682 1.459 1.667 2.618 2.956 3.477A7.491 7.491 0 0012 17.267a7.49 7.49 0 004.244-1.29z" fill="currentColor"/></symbol><symbol fill="none" viewBox="0 0 24 24" id="vk" xmlns="http://www.w3.org/2000/svg"><g clip-path="url(#uclip0_2_12552)"><path d="M15.688 0H8.325C1.6 0 0 1.6 0 8.312v7.363C0 22.4 1.588 24 8.312 24h7.363C22.4 24 24 22.413 24 15.687V8.325C24 1.6 22.413 0 15.687 0zm3.687 17.125h-1.75c-.663 0-.863-.538-2.05-1.725-1.037-1-1.475-1.125-1.737-1.125-.363 0-.463.1-.463.6v1.575c0 .425-.137.675-1.25.675a6.83 6.83 0 01-5.338-3.2 13.952 13.952 0 01-2.762-5.8c0-.263.1-.5.6-.5h1.75c.45 0 .613.2.787.662.85 2.5 2.3 4.675 2.888 4.675.225 0 .325-.1.325-.662V9.725c-.075-1.175-.7-1.275-.7-1.7a.432.432 0 01.45-.4h2.75c.375 0 .5.187.5.637v3.476c0 .375.162.5.275.5.225 0 .4-.125.813-.538a14.399 14.399 0 002.15-3.575.754.754 0 01.762-.5h1.75c.525 0 .637.262.525.637A21.848 21.848 0 0117.3 12.3c-.188.287-.262.438 0 .775.175.263.787.775 1.2 1.263.6.598 1.098 1.29 1.475 2.05.15.487-.1.737-.6.737z" fill="currentColor"/></g><defs><clipPath id="uclip0_2_12552"><path fill="currentColor" d="M0 0h24v24H0z"/></clipPath></defs></symbol></svg>