<?xml version="1.0" encoding="utf-8"?><svg xmlns="http://www.w3.org/2000/svg" xmlns:xlink="http://www.w3.org/1999/xlink"><symbol fill="none" viewBox="0 0 24 24" id="arenda" xmlns="http://www.w3.org/2000/svg"><g clip-path="url(#aclip0_2_4124)"><path d="M1.44 21.705c-.038 0-.077 0-.097-.02a.333.333 0 01-.232-.193L.046 19.517c-.097-.194-.039-.426.155-.523l.64-.348-.35-.736a.39.39 0 01.136-.484l.697-.446-.368-.774a.39.39 0 01.136-.484l.716-.484-.368-.814a.377.377 0 01-.019-.252l.736-2.807C.995 10.3.53 8.615.975 7.008A4.269 4.269 0 013.01 4.413a4.284 4.284 0 013.272-.388 4.283 4.283 0 012.963 5.306c-.445 1.627-1.781 2.924-3.292 3.234l-2.207 7.707c-.02.097-.097.175-.175.233l-1.936 1.123a.278.278 0 01-.194.077zm-.542-2.207l.697 1.278 1.453-.852 2.226-7.785a.372.372 0 01.31-.271c1.317-.174 2.498-1.297 2.905-2.73A3.511 3.511 0 006.05 4.8a3.56 3.56 0 00-2.672.31A3.55 3.55 0 001.71 7.22c-.387 1.376.059 2.828 1.124 3.7a.402.402 0 01.135.406l-.755 2.904.445.988a.397.397 0 01-.135.484l-.717.465.368.755a.39.39 0 01-.135.484l-.698.446.368.755a.375.375 0 01-.155.503l-.658.388z" fill="currentColor"/><path d="M5.488 8.15c-.117 0-.252-.02-.368-.058a1.444 1.444 0 01-.833-.64 1.35 1.35 0 01-.116-1.025 1.393 1.393 0 011.684-.95c.349.098.64.33.833.64.174.31.213.678.116 1.026A1.36 1.36 0 015.488 8.15zm0-1.936c-.252 0-.504.174-.562.426a.594.594 0 00.058.445.602.602 0 00.348.271c.31.097.64-.097.737-.406a.594.594 0 00-.059-.446.6.6 0 00-.348-.271c-.078-.02-.116-.02-.174-.02zm3.33 3.563a3.686 3.686 0 01-2.265-.775.396.396 0 01-.078-.542.396.396 0 01.542-.078c.523.407 1.143.6 1.801.6.523 0 1.046-.135 1.491-.406a.376.376 0 01.523.136.375.375 0 01-.136.523 3.42 3.42 0 01-1.878.542z" fill="currentColor"/><path d="M5.507 6.214h-.02a.402.402 0 01-.367-.407A3.718 3.718 0 018.818 2.36a3.724 3.724 0 013.621 2.924.394.394 0 01-.29.465.394.394 0 01-.465-.29 2.937 2.937 0 00-2.866-2.344c-1.53 0-2.827 1.2-2.924 2.73-.02.194-.194.369-.387.369z" fill="currentColor"/><path d="M17.92 18.84a.382.382 0 01-.272-.117l-6.583-6.584c-.155-.155-.504-.561-.504-1.046l-.407-4.28v-.038c0-.523.155-.91.504-1.278.349-.348.736-.503 1.181-.503h.136l4.28.387c.503 0 .89.368 1.045.503l6.584 6.584a.374.374 0 010 .543l-5.693 5.712c-.058.078-.155.116-.271.116zM10.928 6.755l.406 4.28v.038c0 .155.117.349.291.523l6.313 6.313 5.132-5.151-6.313-6.313c-.175-.174-.388-.29-.523-.29h-.039l-4.357-.407c-.232 0-.426.097-.62.29-.212.213-.29.407-.29.717z" fill="currentColor"/><path d="M14.995 12.042a.383.383 0 01-.27-.116.375.375 0 010-.542l1.878-1.878a.374.374 0 01.542 0 .374.374 0 010 .542l-1.878 1.878a.383.383 0 01-.271.116zm2.189 2.188a.382.382 0 01-.271-.116.374.374 0 010-.542l1.878-1.878a.375.375 0 01.542 0 .374.374 0 010 .542l-1.878 1.878a.383.383 0 01-.271.116z" fill="currentColor"/><path d="M5.488 6.214c-.252 0-.504.174-.562.426a.594.594 0 00.058.445.602.602 0 00.348.271c.31.097.64-.097.737-.406a.594.594 0 00-.059-.446.6.6 0 00-.348-.271c-.078-.02-.116-.02-.174-.02zm0 0h.019c.194 0 .368-.175.387-.368.097-1.53 1.394-2.73 2.924-2.73 1.375 0 2.576.968 2.866 2.342.058.213.252.33.465.29a.394.394 0 00.29-.464A3.724 3.724 0 008.82 2.36a3.718 3.718 0 00-3.7 3.447c0 .213.155.387.369.407zM1.44 21.705c-.038 0-.077 0-.097-.02a.333.333 0 01-.232-.193L.046 19.517c-.097-.194-.039-.426.155-.523l.64-.348-.35-.736a.39.39 0 01.136-.484l.697-.446-.368-.774a.39.39 0 01.136-.484l.716-.484-.368-.814a.377.377 0 01-.019-.252l.736-2.807C.995 10.3.53 8.615.975 7.008A4.269 4.269 0 013.01 4.413a4.284 4.284 0 013.272-.388 4.283 4.283 0 012.963 5.306c-.445 1.627-1.781 2.924-3.292 3.234l-2.207 7.707c-.02.097-.097.175-.175.233l-1.936 1.123a.278.278 0 01-.194.077zm-.542-2.207l.697 1.278 1.453-.852 2.226-7.785a.372.372 0 01.31-.271c1.317-.174 2.498-1.297 2.905-2.73A3.511 3.511 0 006.05 4.8a3.56 3.56 0 00-2.672.31A3.55 3.55 0 001.71 7.22c-.387 1.376.059 2.828 1.124 3.7a.402.402 0 01.135.406l-.755 2.904.445.988a.397.397 0 01-.135.484l-.717.465.368.755a.39.39 0 01-.135.484l-.698.446.368.755a.375.375 0 01-.155.503l-.658.388zM5.488 8.15c-.117 0-.252-.02-.368-.058a1.444 1.444 0 01-.833-.64 1.35 1.35 0 01-.116-1.025 1.393 1.393 0 011.684-.95c.349.098.64.33.833.64.174.31.213.678.116 1.026A1.36 1.36 0 015.488 8.15zm3.33 1.627a3.686 3.686 0 01-2.265-.775.396.396 0 01-.078-.542.396.396 0 01.542-.078c.523.407 1.143.6 1.801.6.523 0 1.046-.135 1.491-.406a.376.376 0 01.523.136.375.375 0 01-.136.523 3.42 3.42 0 01-1.878.542zm9.101 9.062a.382.382 0 01-.27-.116l-6.585-6.584c-.154-.155-.503-.561-.503-1.046l-.407-4.28v-.038c0-.523.155-.91.504-1.278.349-.348.736-.503 1.181-.503h.136l4.28.387c.503 0 .89.368 1.045.503l6.584 6.584a.374.374 0 010 .543l-5.693 5.712c-.058.078-.155.116-.271.116zM10.93 6.756l.406 4.28v.038c0 .155.117.349.291.523l6.313 6.313 5.132-5.151-6.313-6.313c-.175-.174-.388-.29-.523-.29h-.039l-4.357-.407c-.232 0-.426.097-.62.29-.212.213-.29.407-.29.717zm4.066 5.286a.383.383 0 01-.27-.116.375.375 0 010-.542l1.878-1.878a.374.374 0 01.542 0 .374.374 0 010 .542l-1.878 1.878a.383.383 0 01-.271.116zm2.189 2.188a.382.382 0 01-.271-.116.374.374 0 010-.542l1.878-1.878a.375.375 0 01.542 0 .374.374 0 010 .542l-1.878 1.878a.383.383 0 01-.271.116z" stroke="currentColor" stroke-width=".75"/></g><defs><clipPath id="aclip0_2_4124"><path fill="currentColor" d="M0 0h24v24H0z"/></clipPath></defs></symbol><symbol fill="none" viewBox="0 0 24 24" id="arrow_bottom" xmlns="http://www.w3.org/2000/svg"><path d="M18 10l-6 6-6-6 1.4-1.4 4.6 4.6 4.6-4.6L18 10z" fill="currentColor"/></symbol><symbol fill="none" viewBox="0 0 24 24" id="arrow_left" xmlns="http://www.w3.org/2000/svg"><path d="M7.825 13H20v-2H7.825l5.6-5.6L12 4l-8 8 8 8 1.425-1.4-5.6-5.6z" fill="currentColor"/></symbol><symbol fill="none" viewBox="0 0 24 24" id="arrow_long_left" xmlns="http://www.w3.org/2000/svg"><path d="M10 18l1.4-1.45L7.85 13H20v-2H7.85l3.55-3.55L10 6l-6 6 6 6z" fill="currentColor"/></symbol><symbol fill="none" viewBox="0 0 24 24" id="arrow_right" xmlns="http://www.w3.org/2000/svg"><path d="M16.175 13H4v-2h12.175l-5.6-5.6L12 4l8 8-8 8-1.425-1.4 5.6-5.6z" fill="currentColor"/></symbol><symbol fill="none" viewBox="0 0 24 24" id="catalog" xmlns="http://www.w3.org/2000/svg"><path d="M13 21v-8h8v8h-8zm0-10V3h8v8h-8zM3 11V3h8v8H3zm0 10v-8h8v8H3z" fill="currentColor"/></symbol><symbol fill="none" viewBox="0 0 24 24" id="map" xmlns="http://www.w3.org/2000/svg"><path d="M4.35 20.7a.903.903 0 01-.925-.113A.988.988 0 013 19.75v-14c0-.217.063-.408.188-.575A1.13 1.13 0 013.7 4.8L9 3l6 2.1 4.65-1.8a.903.903 0 01.925.113.988.988 0 01.425.837v8.425a5.595 5.595 0 00-.887-1.05A6.305 6.305 0 0019 10.8V5.7l-3 1.15V10c-.35 0-.692.03-1.025.088a5.61 5.61 0 00-.975.262v-3.5l-4-1.4v13.075L4.35 20.7zM5 18.3l3-1.15V5.45l-3 1V18.3zm12.413-.8c.375-.333.57-.833.587-1.5.017-.567-.17-1.042-.563-1.425A1.977 1.977 0 0016 14c-.567 0-1.042.192-1.425.575-.383.383-.575.858-.575 1.425 0 .567.192 1.042.575 1.425.383.383.858.575 1.425.575.567 0 1.038-.167 1.413-.5zM16 20c-1.1 0-2.042-.392-2.825-1.175C12.392 18.042 12 17.1 12 16s.392-2.042 1.175-2.825C13.958 12.392 14.9 12 16 12s2.042.392 2.825 1.175C19.608 13.958 20 14.9 20 16c0 .383-.046.746-.137 1.087-.092.342-.23.663-.413.963L22 20.6 20.6 22l-2.55-2.55c-.3.183-.62.32-.963.413A4.18 4.18 0 0116 20z" fill="currentColor"/></symbol><symbol fill="none" viewBox="0 0 24 24" id="phone" xmlns="http://www.w3.org/2000/svg"><path d="M19.95 21c-2.083 0-4.142-.454-6.175-1.363-2.033-.908-3.883-2.195-5.55-3.862-1.667-1.667-2.954-3.517-3.862-5.55C3.454 8.192 3 6.133 3 4.05c0-.3.1-.55.3-.75.2-.2.45-.3.75-.3H8.1a.93.93 0 01.625.237.914.914 0 01.325.563l.65 3.5a1.77 1.77 0 01-.025.675c-.05.183-.142.342-.275.475L6.975 10.9c.333.617.73 1.213 1.188 1.787.458.575.962 1.13 1.512 1.663.517.517 1.058.996 1.625 1.438.567.441 1.167.845 1.8 1.212l2.35-2.35a1.4 1.4 0 01.588-.338 1.61 1.61 0 01.712-.062l3.45.7c.233.067.425.188.575.363A.88.88 0 0121 15.9v4.05c0 .3-.1.55-.3.75-.2.2-.45.3-.75.3z" fill="currentColor"/></symbol><symbol fill="none" viewBox="0 0 10 10" id="plus" xmlns="http://www.w3.org/2000/svg"><path d="M5.5 9.5H4v-4H0V4h4V0h1.5v4h4v1.5h-4v4z" fill="currentColor"/></symbol><symbol fill="none" viewBox="0 0 24 24" id="search" xmlns="http://www.w3.org/2000/svg"><path d="M19.6 21l-6.3-6.3A6.096 6.096 0 019.5 16c-1.817 0-3.354-.63-4.612-1.887C3.629 12.854 3 11.317 3 9.5c0-1.817.63-3.354 1.888-4.612C6.146 3.629 7.683 3 9.5 3c1.817 0 3.354.63 4.613 1.888C15.37 6.146 16 7.683 16 9.5a6.096 6.096 0 01-1.3 3.8l6.3 6.3-1.4 1.4zM9.5 14c1.25 0 2.313-.438 3.188-1.313C13.562 11.813 14 10.75 14 9.5c0-1.25-.438-2.313-1.313-3.188C11.813 5.438 10.75 5 9.5 5c-1.25 0-2.313.438-3.188 1.313S5 8.25 5 9.5c0 1.25.438 2.313 1.313 3.188C7.188 13.562 8.25 14 9.5 14z" fill="currentColor"/></symbol><symbol fill="none" viewBox="0 0 24 24" id="star" xmlns="http://www.w3.org/2000/svg"><path d="M5.825 21l1.625-7.025L2 9.25l7.2-.625L12 2l2.8 6.625 7.2.625-5.45 4.725L18.175 21 12 17.275 5.825 21z" fill="currentColor"/></symbol></svg>