<svg width="398" height="398" viewBox="0 0 398 398" fill="none" xmlns="http://www.w3.org/2000/svg">
<path d="M398 348.25C398 375.726 375.726 398 348.25 398C320.774 398 298.5 375.726 298.5 348.25C298.5 320.774 320.774 298.5 348.25 298.5C375.726 298.5 398 320.774 398 348.25Z" fill="url(#paint0_linear_2_14573)" fill-opacity="0.25"/>
<path d="M398 248.75C398 276.226 375.726 298.5 348.25 298.5C320.774 298.5 298.5 276.226 298.5 248.75C298.5 221.274 320.774 199 348.25 199C375.726 199 398 221.274 398 248.75Z" fill="url(#paint1_linear_2_14573)" fill-opacity="0.25"/>
<path d="M398 149.25C398 176.726 375.726 199 348.25 199C320.774 199 298.5 176.726 298.5 149.25C298.5 121.774 320.774 99.5 348.25 99.5C375.726 99.5 398 121.774 398 149.25Z" fill="url(#paint2_linear_2_14573)" fill-opacity="0.25"/>
<path d="M398 49.75C398 77.2262 375.726 99.5 348.25 99.5C320.774 99.5 298.5 77.2262 298.5 49.75C298.5 22.2738 320.774 0 348.25 0C375.726 0 398 22.2738 398 49.75Z" fill="url(#paint3_linear_2_14573)" fill-opacity="0.25"/>
<path d="M298.5 49.75C298.5 77.2262 276.226 99.5 248.75 99.5C221.274 99.5 199 77.2262 199 49.75C199 22.2738 221.274 0 248.75 0C276.226 0 298.5 22.2738 298.5 49.75Z" fill="url(#paint4_linear_2_14573)" fill-opacity="0.25"/>
<path d="M298.5 149.25C298.5 176.726 276.226 199 248.75 199C221.274 199 199 176.726 199 149.25C199 121.774 221.274 99.5 248.75 99.5C276.226 99.5 298.5 121.774 298.5 149.25Z" fill="url(#paint5_linear_2_14573)" fill-opacity="0.25"/>
<path d="M298.5 248.75C298.5 276.226 276.226 298.5 248.75 298.5C221.274 298.5 199 276.226 199 248.75C199 221.274 221.274 199 248.75 199C276.226 199 298.5 221.274 298.5 248.75Z" fill="url(#paint6_linear_2_14573)" fill-opacity="0.25"/>
<path d="M298.5 348.25C298.5 375.726 276.226 398 248.75 398C221.274 398 199 375.726 199 348.25C199 320.774 221.274 298.5 248.75 298.5C276.226 298.5 298.5 320.774 298.5 348.25Z" fill="url(#paint7_linear_2_14573)" fill-opacity="0.25"/>
<path d="M199 348.25C199 375.726 176.726 398 149.25 398C121.774 398 99.5 375.726 99.5 348.25C99.5 320.774 121.774 298.5 149.25 298.5C176.726 298.5 199 320.774 199 348.25Z" fill="url(#paint8_linear_2_14573)" fill-opacity="0.25"/>
<path d="M199 248.75C199 276.226 176.726 298.5 149.25 298.5C121.774 298.5 99.5 276.226 99.5 248.75C99.5 221.274 121.774 199 149.25 199C176.726 199 199 221.274 199 248.75Z" fill="url(#paint9_linear_2_14573)" fill-opacity="0.25"/>
<path d="M199 149.25C199 176.726 176.726 199 149.25 199C121.774 199 99.5 176.726 99.5 149.25C99.5 121.774 121.774 99.5 149.25 99.5C176.726 99.5 199 121.774 199 149.25Z" fill="url(#paint10_linear_2_14573)" fill-opacity="0.25"/>
<path d="M199 49.75C199 77.2262 176.726 99.5 149.25 99.5C121.774 99.5 99.5 77.2262 99.5 49.75C99.5 22.2738 121.774 0 149.25 0C176.726 0 199 22.2738 199 49.75Z" fill="url(#paint11_linear_2_14573)" fill-opacity="0.25"/>
<path d="M99.5 49.75C99.5 77.2262 77.2262 99.5 49.75 99.5C22.2738 99.5 0 77.2262 0 49.75C0 22.2738 22.2738 0 49.75 0C77.2262 0 99.5 22.2738 99.5 49.75Z" fill="url(#paint12_linear_2_14573)" fill-opacity="0.25"/>
<path d="M99.5 149.25C99.5 176.726 77.2262 199 49.75 199C22.2738 199 0 176.726 0 149.25C0 121.774 22.2738 99.5 49.75 99.5C77.2262 99.5 99.5 121.774 99.5 149.25Z" fill="url(#paint13_linear_2_14573)" fill-opacity="0.25"/>
<path d="M99.5 248.75C99.5 276.226 77.2262 298.5 49.75 298.5C22.2738 298.5 0 276.226 0 248.75C0 221.274 22.2738 199 49.75 199C77.2262 199 99.5 221.274 99.5 248.75Z" fill="url(#paint14_linear_2_14573)" fill-opacity="0.25"/>
<path d="M99.5 348.25C99.5 375.726 77.2262 398 49.75 398C22.2738 398 0 375.726 0 348.25C0 320.774 22.2738 298.5 49.75 298.5C77.2262 298.5 99.5 320.774 99.5 348.25Z" fill="url(#paint15_linear_2_14573)" fill-opacity="0.25"/>
<defs>
<linearGradient id="paint0_linear_2_14573" x1="199" y1="-5.93066e-06" x2="-8.89599e-06" y2="398" gradientUnits="userSpaceOnUse">
<stop stop-color="#D9D9D9"/>
<stop offset="1" stop-color="white" stop-opacity="0"/>
</linearGradient>
<linearGradient id="paint1_linear_2_14573" x1="199" y1="-5.93066e-06" x2="-8.89599e-06" y2="398" gradientUnits="userSpaceOnUse">
<stop stop-color="#D9D9D9"/>
<stop offset="1" stop-color="white" stop-opacity="0"/>
</linearGradient>
<linearGradient id="paint2_linear_2_14573" x1="199" y1="-5.93066e-06" x2="-8.89599e-06" y2="398" gradientUnits="userSpaceOnUse">
<stop stop-color="#D9D9D9"/>
<stop offset="1" stop-color="white" stop-opacity="0"/>
</linearGradient>
<linearGradient id="paint3_linear_2_14573" x1="199" y1="-5.93066e-06" x2="-8.89599e-06" y2="398" gradientUnits="userSpaceOnUse">
<stop stop-color="#D9D9D9"/>
<stop offset="1" stop-color="white" stop-opacity="0"/>
</linearGradient>
<linearGradient id="paint4_linear_2_14573" x1="199" y1="-5.93066e-06" x2="-8.89599e-06" y2="398" gradientUnits="userSpaceOnUse">
<stop stop-color="#D9D9D9"/>
<stop offset="1" stop-color="white" stop-opacity="0"/>
</linearGradient>
<linearGradient id="paint5_linear_2_14573" x1="199" y1="-5.93066e-06" x2="-8.89599e-06" y2="398" gradientUnits="userSpaceOnUse">
<stop stop-color="#D9D9D9"/>
<stop offset="1" stop-color="white" stop-opacity="0"/>
</linearGradient>
<linearGradient id="paint6_linear_2_14573" x1="199" y1="-5.93066e-06" x2="-8.89599e-06" y2="398" gradientUnits="userSpaceOnUse">
<stop stop-color="#D9D9D9"/>
<stop offset="1" stop-color="white" stop-opacity="0"/>
</linearGradient>
<linearGradient id="paint7_linear_2_14573" x1="199" y1="-5.93066e-06" x2="-8.89599e-06" y2="398" gradientUnits="userSpaceOnUse">
<stop stop-color="#D9D9D9"/>
<stop offset="1" stop-color="white" stop-opacity="0"/>
</linearGradient>
<linearGradient id="paint8_linear_2_14573" x1="199" y1="-5.93066e-06" x2="-8.89599e-06" y2="398" gradientUnits="userSpaceOnUse">
<stop stop-color="#D9D9D9"/>
<stop offset="1" stop-color="white" stop-opacity="0"/>
</linearGradient>
<linearGradient id="paint9_linear_2_14573" x1="199" y1="-5.93066e-06" x2="-8.89599e-06" y2="398" gradientUnits="userSpaceOnUse">
<stop stop-color="#D9D9D9"/>
<stop offset="1" stop-color="white" stop-opacity="0"/>
</linearGradient>
<linearGradient id="paint10_linear_2_14573" x1="199" y1="-5.93066e-06" x2="-8.89599e-06" y2="398" gradientUnits="userSpaceOnUse">
<stop stop-color="#D9D9D9"/>
<stop offset="1" stop-color="white" stop-opacity="0"/>
</linearGradient>
<linearGradient id="paint11_linear_2_14573" x1="199" y1="-5.93066e-06" x2="-8.89599e-06" y2="398" gradientUnits="userSpaceOnUse">
<stop stop-color="#D9D9D9"/>
<stop offset="1" stop-color="white" stop-opacity="0"/>
</linearGradient>
<linearGradient id="paint12_linear_2_14573" x1="199" y1="-5.93066e-06" x2="-8.89599e-06" y2="398" gradientUnits="userSpaceOnUse">
<stop stop-color="#D9D9D9"/>
<stop offset="1" stop-color="white" stop-opacity="0"/>
</linearGradient>
<linearGradient id="paint13_linear_2_14573" x1="199" y1="-5.93066e-06" x2="-8.89599e-06" y2="398" gradientUnits="userSpaceOnUse">
<stop stop-color="#D9D9D9"/>
<stop offset="1" stop-color="white" stop-opacity="0"/>
</linearGradient>
<linearGradient id="paint14_linear_2_14573" x1="199" y1="-5.93066e-06" x2="-8.89599e-06" y2="398" gradientUnits="userSpaceOnUse">
<stop stop-color="#D9D9D9"/>
<stop offset="1" stop-color="white" stop-opacity="0"/>
</linearGradient>
<linearGradient id="paint15_linear_2_14573" x1="199" y1="-5.93066e-06" x2="-8.89599e-06" y2="398" gradientUnits="userSpaceOnUse">
<stop stop-color="#D9D9D9"/>
<stop offset="1" stop-color="white" stop-opacity="0"/>
</linearGradient>
</defs>
</svg>
