<svg xmlns="http://www.w3.org/2000/svg" width="30" height="39" viewBox="0 0 30 39" fill="none"><metadata><rdf:RDF xmlns:rdf="http://www.w3.org/1999/02/22-rdf-syntax-ns#" xmlns:dc="http://purl.org/dc/elements/1.1/"><rdf:Description><dc:creator>RealFaviconGenerator</dc:creator><dc:source>https://realfavicongenerator.net</dc:source></rdf:Description></rdf:RDF></metadata><path d="M3.78551 0.00708008L0.145046 6.32186L7.63771 19.3585L0 32.0031L3.81519 38.5102L14.8265 19.2985L3.78551 0.00708008Z" fill="url(#paint0_linear_3_340)"></path><path fill-rule="evenodd" clip-rule="evenodd" d="M19.8028 13.6391H25.414L29.6632 7.24989L16.0273 7.07227L19.8028 13.6391Z" fill="#44AB2E"></path><path fill-rule="evenodd" clip-rule="evenodd" d="M19.3926 25.3069H25.2692L29.7007 31.3564L15.8262 31.3574L19.3926 25.3069Z" fill="#17621C"></path><path fill-rule="evenodd" clip-rule="evenodd" d="M3.78125 0H10.6456H25.9217L29.5955 6.17523H14.2504L21.8943 19.2986H14.6433L3.78125 0Z" fill="#0A7522"></path><path fill-rule="evenodd" clip-rule="evenodd" d="M3.81445 38.51H10.679H25.9549L29.6289 32.3348H14.2839L21.894 19.2983H14.6429L3.81445 38.51Z" fill="#B1C900"></path><path fill-rule="evenodd" clip-rule="evenodd" d="M25.9189 0L27.6228 2.86404L29.6361 6.16735H25.2497H20.8633L25.9189 0Z" fill="#1B661D"></path><path fill-rule="evenodd" clip-rule="evenodd" d="M20.8851 6.17189L15.375 0L21.5543 0.00475929H25.9407L20.8851 6.17189Z" fill="#007324"></path><path fill-rule="evenodd" clip-rule="evenodd" d="M20.8877 6.17189L3.9668 0L10.9445 0.00163487H15.3309L20.8877 6.17189Z" fill="#006E22"></path><path fill-rule="evenodd" clip-rule="evenodd" d="M3.78125 0L14.2504 6.17523L20.8849 6.17283L11.2909 2.71069L3.78125 0Z" fill="#0C651E"></path><path fill-rule="evenodd" clip-rule="evenodd" d="M14.2485 6.17567L10.6938 12.2852L3.7832 0.0078125L14.2485 6.17567Z" fill="#006E22"></path><path fill-rule="evenodd" clip-rule="evenodd" d="M14.6409 19.2985L19.6991 15.5332L10.6934 12.2847L14.6409 19.2985Z" fill="#127522"></path><path fill-rule="evenodd" clip-rule="evenodd" d="M21.8919 19.2987L19.6988 15.5334L14.6406 19.2987H21.8919Z" fill="#005C1C"></path><path fill-rule="evenodd" clip-rule="evenodd" d="M11.5332 24.8164L21.8948 19.2983H15.2744H14.6435L11.5332 24.8164Z" fill="#007022"></path><path fill-rule="evenodd" clip-rule="evenodd" d="M16.3603 28.7786L11.5332 24.8164L21.8948 19.2983L16.3603 28.7786Z" fill="#077F25"></path><path fill-rule="evenodd" clip-rule="evenodd" d="M7.78125 31.4722L16.3594 28.7791L11.5323 24.8169L7.78125 31.4722Z" fill="#038B29"></path><path fill-rule="evenodd" clip-rule="evenodd" d="M14.2836 32.3352L16.3594 28.7791L7.78125 31.4722L14.2836 32.3352Z" fill="#52A022"></path><path fill-rule="evenodd" clip-rule="evenodd" d="M3.99776 38.5107L14.2844 32.3355L7.78211 31.4724L3.90234 38.3555L3.99776 38.5107Z" fill="#038B29"></path><path fill-rule="evenodd" clip-rule="evenodd" d="M18.9015 38.5107L14.2842 32.3354L3.82422 38.5107L8.37457 38.4562L18.9015 38.5107Z" fill="#14A030"></path><path fill-rule="evenodd" clip-rule="evenodd" d="M24.7681 32.3843L18.9008 38.5102L14.3203 32.3843H24.7681Z" fill="#109A2E"></path><path fill-rule="evenodd" clip-rule="evenodd" d="M29.6282 32.3354L18.9004 38.5107L24.7677 32.3847L29.6282 32.3354Z" fill="#229026"></path><path fill-rule="evenodd" clip-rule="evenodd" d="M25.9542 38.5107L29.6282 32.3354L18.9004 38.5107H25.9542Z" fill="#32A829"></path><defs>
<linearGradient id="paint0_linear_3_340" x1="-875.577" y1="229.431" x2="-912.753" y2="229.431" gradientUnits="userSpaceOnUse">
<stop stop-color="#6FB41E"></stop>
<stop offset="0.56" stop-color="#60B122"></stop>
<stop offset="1" stop-color="#4CAC26"></stop>
</linearGradient>
</defs></svg>