<svg width="24" height="24" viewBox="0 0 24 24" fill="none" xmlns="http://www.w3.org/2000/svg">
<rect x="0.5" y="0.5" width="23" height="23" rx="11.5" fill="#6F19E8"/>
<rect x="0.5" y="0.5" width="23" height="23" rx="11.5" stroke="white"/>
<path d="M7.97059 18V13.5H7V10.2C7 9.87 7.12672 9.5875 7.38015 9.3525C7.63358 9.1175 7.93824 9 8.29412 9H10.2353C10.5912 9 10.8958 9.1175 11.1493 9.3525C11.4027 9.5875 11.5294 9.87 11.5294 10.2V13.5H10.5588V18H7.97059ZM9.26471 8.4C8.90882 8.4 8.60417 8.2825 8.35074 8.0475C8.0973 7.8125 7.97059 7.53 7.97059 7.2C7.97059 6.87 8.0973 6.5875 8.35074 6.3525C8.60417 6.1175 8.90882 6 9.26471 6C9.62059 6 9.92525 6.1175 10.1787 6.3525C10.4321 6.5875 10.5588 6.87 10.5588 7.2C10.5588 7.53 10.4321 7.8125 10.1787 8.0475C9.92525 8.2825 9.62059 8.4 9.26471 8.4ZM14.1176 18V14.4H12.1765L13.8265 9.81C13.9127 9.55 14.0718 9.35 14.3037 9.21C14.5355 9.07 14.7971 9 15.0882 9C15.3794 9 15.6409 9.07 15.8728 9.21C16.1047 9.35 16.2637 9.55 16.35 9.81L18 14.4H16.0588V18H14.1176ZM15.0882 8.4C14.7324 8.4 14.4277 8.2825 14.1743 8.0475C13.9208 7.8125 13.7941 7.53 13.7941 7.2C13.7941 6.87 13.9208 6.5875 14.1743 6.3525C14.4277 6.1175 14.7324 6 15.0882 6C15.4441 6 15.7488 6.1175 16.0022 6.3525C16.2556 6.5875 16.3824 6.87 16.3824 7.2C16.3824 7.53 16.2556 7.8125 16.0022 8.0475C15.7488 8.2825 15.4441 8.4 15.0882 8.4Z" fill="white"/>
</svg>
