<svg width="24" height="24" viewBox="0 0 24 24" fill="none" xmlns="http://www.w3.org/2000/svg">
<rect x="0.5" y="0.5" width="23" height="23" rx="11.5" fill="#1663A7"/>
<rect x="0.5" y="0.5" width="23" height="23" rx="11.5" stroke="white"/>
<path d="M12 7.54545C11.7222 7.54545 11.4861 7.45265 11.2917 7.26705C11.0972 7.08144 11 6.85606 11 6.59091C11 6.36818 11.0806 6.12955 11.2417 5.875C11.4028 5.62045 11.6556 5.32879 12 5C12.3444 5.32879 12.5972 5.62045 12.7583 5.875C12.9194 6.12955 13 6.36818 13 6.59091C13 6.85606 12.9028 7.08144 12.7083 7.26705C12.5139 7.45265 12.2778 7.54545 12 7.54545ZM8.66667 7.54545C8.38889 7.54545 8.15278 7.45265 7.95833 7.26705C7.76389 7.08144 7.66667 6.85606 7.66667 6.59091C7.66667 6.36818 7.74722 6.12955 7.90833 5.875C8.06944 5.62045 8.32222 5.32879 8.66667 5C9.01111 5.32879 9.26389 5.62045 9.425 5.875C9.58611 6.12955 9.66667 6.36818 9.66667 6.59091C9.66667 6.85606 9.56944 7.08144 9.375 7.26705C9.18056 7.45265 8.94444 7.54545 8.66667 7.54545ZM15.3333 7.54545C15.0556 7.54545 14.8194 7.45265 14.625 7.26705C14.4306 7.08144 14.3333 6.85606 14.3333 6.59091C14.3333 6.36818 14.4139 6.12955 14.575 5.875C14.7361 5.62045 14.9889 5.32879 15.3333 5C15.6778 5.32879 15.9306 5.62045 16.0917 5.875C16.2528 6.12955 16.3333 6.36818 16.3333 6.59091C16.3333 6.85606 16.2361 7.08144 16.0417 7.26705C15.8472 7.45265 15.6111 7.54545 15.3333 7.54545ZM8 17.7273V18.3636C8 18.5439 7.93611 18.6951 7.80833 18.817C7.68056 18.939 7.52222 19 7.33333 19H6.66667C6.47778 19 6.31944 18.939 6.19167 18.817C6.06389 18.6951 6 18.5439 6 18.3636V13.2727L7.4 9.45455C7.46667 9.26364 7.58611 9.10985 7.75833 8.99318C7.93056 8.87652 8.12222 8.81818 8.33333 8.81818H15.6667C15.8778 8.81818 16.0694 8.87652 16.2417 8.99318C16.4139 9.10985 16.5333 9.26364 16.6 9.45455L18 13.2727V18.3636C18 18.5439 17.9361 18.6951 17.8083 18.817C17.6806 18.939 17.5222 19 17.3333 19H16.6667C16.4778 19 16.3194 18.939 16.1917 18.817C16.0639 18.6951 16 18.5439 16 18.3636V17.7273H8ZM7.86667 12H16.1333L15.4333 10.0909H8.56667L7.86667 12ZM9 15.8182C9.27778 15.8182 9.51389 15.7254 9.70833 15.5398C9.90278 15.3542 10 15.1288 10 14.8636C10 14.5985 9.90278 14.3731 9.70833 14.1875C9.51389 14.0019 9.27778 13.9091 9 13.9091C8.72222 13.9091 8.48611 14.0019 8.29167 14.1875C8.09722 14.3731 8 14.5985 8 14.8636C8 15.1288 8.09722 15.3542 8.29167 15.5398C8.48611 15.7254 8.72222 15.8182 9 15.8182ZM15 15.8182C15.2778 15.8182 15.5139 15.7254 15.7083 15.5398C15.9028 15.3542 16 15.1288 16 14.8636C16 14.5985 15.9028 14.3731 15.7083 14.1875C15.5139 14.0019 15.2778 13.9091 15 13.9091C14.7222 13.9091 14.4861 14.0019 14.2917 14.1875C14.0972 14.3731 14 14.5985 14 14.8636C14 15.1288 14.0972 15.3542 14.2917 15.5398C14.4861 15.7254 14.7222 15.8182 15 15.8182ZM7.33333 16.4545H16.6667V13.2727H7.33333V16.4545Z" fill="white"/>
</svg>
