<svg width="24" height="24" viewBox="0 0 24 24" fill="none" xmlns="http://www.w3.org/2000/svg">
<rect x="0.5" y="0.5" width="23" height="23" rx="11.5" fill="#16A77E"/>
<rect x="0.5" y="0.5" width="23" height="23" rx="11.5" stroke="white"/>
<path d="M10.875 15.125H13.125V13.25H15V11H13.125V9.125H10.875V11H9V13.25H10.875V15.125ZM12 20C10.2625 19.5625 8.82813 18.5656 7.69688 17.0094C6.56563 15.4531 6 13.725 6 11.825V7.25L12 5L18 7.25V11.825C18 13.725 17.4344 15.4531 16.3031 17.0094C15.1719 18.5656 13.7375 19.5625 12 20ZM12 18.425C13.3 18.0125 14.375 17.1875 15.225 15.95C16.075 14.7125 16.5 13.3375 16.5 11.825V8.28125L12 6.59375L7.5 8.28125V11.825C7.5 13.3375 7.925 14.7125 8.775 15.95C9.625 17.1875 10.7 18.0125 12 18.425Z" fill="white"/>
</svg>
