<svg width="24" height="24" viewBox="0 0 24 24" fill="none" xmlns="http://www.w3.org/2000/svg">
<rect x="0.5" y="0.5" width="23" height="23" rx="11.5" fill="#FEC004"/>
<rect x="0.5" y="0.5" width="23" height="23" rx="11.5" stroke="white"/>
<path d="M9 6.5C8.7 6.5 8.5 6.8 8.5 7V9.5H7.5V7C7.5 6.7 7.3 6.5 7 6.5C6.7 6.5 6.5 6.8 6.5 7V9.5H5.5V7C5.5 6.7 5.3 6.5 5 6.5C4.7 6.5 4.5 6.8 4.5 7V10.3C4.5 11.2 5.2 11.9 6 12V19C6 19.6 6.4 20 7 20C7.6 20 8 19.6 8 19V12C8.8 11.9 9.5 11.2 9.5 10.3V7C9.5 6.8 9.3 6.5 9 6.5ZM11 7V13H12V19C12 19.6 12.4 20 13 20C13.6 20 14 19.6 14 19V4C12.3 4 11 5.3 11 7ZM18 6C16.6 6 15.5 7.5 15.5 9.3C15.4 10.5 16 11.6 17 12.3V19C17 19.6 17.4 20 18 20C18.6 20 19 19.6 19 19V12.3C20 11.6 20.6 10.5 20.5 9.3C20.5 7.5 19.4 6 18 6Z" fill="white"/>
</svg>
