<svg width="24" height="24" viewBox="0 0 24 24" fill="none" xmlns="http://www.w3.org/2000/svg">
<rect x="0.5" y="0.5" width="23" height="23" rx="11.5" fill="#1663A7"/>
<rect x="0.5" y="0.5" width="23" height="23" rx="11.5" stroke="white"/>
<path d="M7.63636 18C7.0303 18 6.51515 17.7813 6.09091 17.3438C5.66667 16.9063 5.45455 16.375 5.45455 15.75H4V7.5C4 7.0875 4.14242 6.73438 4.42727 6.44063C4.71212 6.14687 5.05455 6 5.45455 6H15.6364V9H17.8182L20 12V15.75H18.5455C18.5455 16.375 18.3333 16.9063 17.9091 17.3438C17.4848 17.7813 16.9697 18 16.3636 18C15.7576 18 15.2424 17.7813 14.8182 17.3438C14.3939 16.9063 14.1818 16.375 14.1818 15.75H9.81818C9.81818 16.375 9.60606 16.9063 9.18182 17.3438C8.75758 17.7813 8.24242 18 7.63636 18ZM7.63636 16.5C7.84242 16.5 8.01515 16.4281 8.15455 16.2844C8.29394 16.1406 8.36364 15.9625 8.36364 15.75C8.36364 15.5375 8.29394 15.3594 8.15455 15.2156C8.01515 15.0719 7.84242 15 7.63636 15C7.4303 15 7.25758 15.0719 7.11818 15.2156C6.97879 15.3594 6.90909 15.5375 6.90909 15.75C6.90909 15.9625 6.97879 16.1406 7.11818 16.2844C7.25758 16.4281 7.4303 16.5 7.63636 16.5ZM16.3636 16.5C16.5697 16.5 16.7424 16.4281 16.8818 16.2844C17.0212 16.1406 17.0909 15.9625 17.0909 15.75C17.0909 15.5375 17.0212 15.3594 16.8818 15.2156C16.7424 15.0719 16.5697 15 16.3636 15C16.1576 15 15.9848 15.0719 15.8455 15.2156C15.7061 15.3594 15.6364 15.5375 15.6364 15.75C15.6364 15.9625 15.7061 16.1406 15.8455 16.2844C15.9848 16.4281 16.1576 16.5 16.3636 16.5ZM15.6364 12.75H18.7273L17.0909 10.5H15.6364V12.75Z" fill="white"/>
</svg>
