<svg width="24" height="24" viewBox="0 0 24 24" fill="none" xmlns="http://www.w3.org/2000/svg">
<g clip-path="url(#clip0_148_799)">
<path d="M0 0V24H24V0H0ZM16.4872 13.698C15.5345 14.6525 14.2012 15.2485 12.745 15.2478H10.1413V19.3368H6.41077V4.66317H9.89245H10.1413H12.745C14.2011 4.66242 15.5349 5.25844 16.4872 6.2137C17.4424 7.16597 18.038 8.49933 18.0373 9.95588C18.0381 11.4116 17.4424 12.7457 16.4872 13.698Z" fill="#1663A7"/>
<path d="M16.4872 13.698C15.5345 14.6525 14.2012 15.2485 12.745 15.2478H10.1413V19.3368H6.41077V4.66317H9.89245H10.1413H12.745C14.2011 4.66242 15.5349 5.25844 16.4872 6.2137C17.4424 7.16597 18.038 8.49933 18.0373 9.95588C18.0381 11.4116 17.4424 12.7457 16.4872 13.698Z" fill="white"/>
<path d="M12.7443 8.02051H10.1406V11.8902H12.7443C13.2839 11.8895 13.7571 11.676 14.1127 11.3233C14.4654 10.9678 14.6785 10.4949 14.6792 9.9557C14.6785 9.41579 14.4654 8.94291 14.1123 8.58732C13.7571 8.23473 13.2839 8.02126 12.7443 8.02051Z" fill="#1663A7"/>
</g>
<rect x="0.5" y="0.5" width="23" height="23" rx="3.5" stroke="white"/>
<defs>
<clipPath id="clip0_148_799">
<rect width="24" height="24" rx="4" fill="white"/>
</clipPath>
</defs>
</svg>
