<svg width="1259" height="697" viewBox="0 0 1259 697" fill="none" xmlns="http://www.w3.org/2000/svg">
<path d="M131.395 208.078H195.294L190.302 468.704H125.405L131.395 208.078Z" />
<path d="M205.777 289.961V144.17H303.622V289.961H205.777Z" />
<path d="M310.611 144.17H345.555V235.04H310.611V144.17Z" />
<path d="M351.047 144.17H385.992V235.04H351.047V144.17Z" />
<path d="M391.981 144.17H426.926V235.04H391.981V144.17Z" />
<path d="M433.417 144.17H468.361V235.04H433.417V144.17Z" />
<path d="M475.35 144.17H510.295V235.04H475.35V144.17Z" />
<path d="M514.787 144.17H549.732V235.04H514.787V144.17Z" />
<path d="M555.223 144.17H590.168V235.04H555.223V144.17Z" />
<path d="M595.659 144.17H630.603V235.04H595.659V144.17Z" />
<path d="M635.096 144.17H670.041V235.04H635.096V144.17Z" />
<path d="M676.03 144.17H710.975V235.04H676.03V144.17Z" />
<path d="M718.963 144.17H753.907V235.04H718.963V144.17Z" />
<path d="M758.399 144.17H793.344V235.04H758.399V144.17Z" />
<path d="M799.335 144.17H834.28V235.04H799.335V144.17Z" />
<path d="M839.271 144.17H874.216V235.04H839.271V144.17Z" />
<path d="M880.207 144.17H915.151V235.04H880.207V144.17Z" />
<path d="M921.142 144.17H956.086V235.04H921.142V144.17Z" />
<path d="M962.575 144.17H997.519V235.04H962.575V144.17Z" />
<path d="M1004.01 144.17H1038.96V235.04H1004.01V144.17Z" />
<path d="M205.777 385.824V531.615H303.622V385.824H205.777Z" />
<path d="M310.611 531.614H345.555V440.744H310.611V531.614Z" />
<path d="M351.047 531.614H385.992V440.744H351.047V531.614Z" />
<path d="M391.981 531.614H426.926V440.744H391.981V531.614Z" />
<path d="M433.417 531.614H468.361V440.744H433.417V531.614Z" />
<path d="M475.35 531.614H510.295V440.744H475.35V531.614Z" />
<path d="M514.787 531.614H549.732V440.744H514.787V531.614Z" />
<path d="M555.223 531.614H590.168V440.744H555.223V531.614Z" />
<path d="M595.659 531.614H630.603V440.744H595.659V531.614Z" />
<path d="M635.096 531.614H670.041V440.744H635.096V531.614Z" />
<path d="M676.03 531.614H710.975V440.744H676.03V531.614Z" />
<path d="M718.963 531.614H753.907V440.744H718.963V531.614Z" />
<path d="M758.399 531.614H793.344V440.744H758.399V531.614Z" />
<path d="M799.335 531.614H834.28V440.744H799.335V531.614Z" />
<path d="M839.271 531.614H874.216V440.744H839.271V531.614Z" />
<path d="M880.207 531.614H915.151V440.744H880.207V531.614Z" />
<path d="M921.142 531.614H956.086V440.744H921.142V531.614Z" />
<path d="M962.575 531.614H997.519V440.744H962.575V531.614Z" />
<path d="M1004.01 531.614H1033.47V440.744H1004.01V531.614Z" />
<path d="M1038.46 531.614H1093.87V440.744H1038.46V531.614Z" />
<path d="M488.329 267.494H514.787V323.414H488.329V267.494Z" />
<path d="M519.778 267.494H546.236V323.414H519.778V267.494Z" />
<path d="M552.228 267.494H578.686V323.414H552.228V267.494Z" />
<path d="M584.676 267.494H611.134V323.414H584.676V267.494Z" />
<path d="M617.125 267.494H643.583V323.414H617.125V267.494Z" />
<path d="M648.575 267.494H675.033V323.414H648.575V267.494Z" />
<path d="M682.021 267.494H708.479V323.414H682.021V267.494Z" />
<path d="M712.973 267.494H739.43V323.414H712.973V267.494Z" />
<path d="M744.423 267.494H770.881V323.414H744.423V267.494Z" />
<path d="M778.368 267.494H804.826V323.414H778.368V267.494Z" />
<path d="M812.314 267.494H838.772V323.414H812.314V267.494Z" />
<path d="M843.765 267.494H870.223V323.414H843.765V267.494Z" />
<path d="M875.215 267.494H901.673V323.414H875.215V267.494Z" />
<path d="M908.162 267.494H934.62V323.414H908.162V267.494Z" />
<path d="M939.112 267.494H965.57V323.414H939.112V267.494Z" />
<path d="M973.059 267.494H999.517V323.414H973.059V267.494Z" />
<path d="M488.329 334.398H514.787V390.318H488.329V334.398Z" />
<path d="M519.778 334.398H546.236V390.318H519.778V334.398Z" />
<path d="M552.228 334.398H578.686V390.318H552.228V334.398Z" />
<path d="M584.676 334.398H611.134V390.318H584.676V334.398Z" />
<path d="M617.125 334.398H643.583V390.318H617.125V334.398Z" />
<path d="M648.575 334.398H675.033V390.318H648.575V334.398Z" />
<path d="M682.021 334.398H708.479V390.318H682.021V334.398Z" />
<path d="M712.973 334.398H739.43V390.318H712.973V334.398Z" />
<path d="M744.423 334.398H770.881V390.318H744.423V334.398Z" />
<path d="M778.368 334.398H804.826V390.318H778.368V334.398Z" />
<path d="M812.314 334.398H838.772V390.318H812.314V334.398Z" />
<path d="M843.765 334.398H870.223V390.318H843.765V334.398Z" />
<path d="M875.215 334.398H901.673V390.318H875.215V334.398Z" />
<path d="M908.162 334.398H934.62V390.318H908.162V334.398Z" />
<path d="M939.112 334.398H965.57V390.318H939.112V334.398Z" />
<path d="M973.059 334.398H999.517V390.318H973.059V334.398Z" />
</svg>
