<svg width="1259" height="697" viewBox="0 0 1259 697" fill="none" xmlns="http://www.w3.org/2000/svg">
<path fill-rule="evenodd" clip-rule="evenodd" d="M94.8379 441.097L100.838 157.816H395.338V441.097H94.8379Z" />
<path d="M403.338 243.448V157.816H576.338V255.396H527.338L506.338 243.448H403.338Z" />
<path d="M585.838 255.396V157.816H697.838V255.396H585.838Z" />
<path d="M707.338 255.396V157.816H823.338V255.396H707.338Z" />
<path d="M829.838 255.396V157.816H942.338V204.615L894.338 255.396H829.838Z" />
<path d="M1009.34 157.816V204.615L1037.84 234.486H1068.34V157.816H1009.34Z" />
<path d="M1072.34 157.816H1128.84V234.486H1072.34V157.816Z" />
<path d="M1131.84 354.969L1133.84 441.596H1014.84V384.342L1040.84 354.969H1131.84Z" />
<path d="M953.838 384.342H1007.34L1009.34 441.595H953.838V384.342Z" />
<path d="M829.838 346.504H910.338L948.338 384.341V441.595H829.838V346.504Z" />
<path d="M707.338 346.504H824.838V411.225H753.838V441.595H707.338V346.504Z" />
<path d="M767.338 415.209H824.838V441.595H767.338V415.209Z" />
<path d="M581.338 381.852L619.838 346.504H702.338V441.595H581.338V381.852Z" />
<path d="M400.838 441.596V354.969H440.838V441.098L400.838 441.596Z" />
<path d="M445.838 354.969H484.338L519.338 385.836V441.098H445.838V354.969Z" />
</svg>
