<svg width="1260" height="698" viewBox="0 0 1260 698" fill="none" xmlns="http://www.w3.org/2000/svg">
<rect x="0.5" y="0.5" width="1259" height="697"/>
<path fill-rule="evenodd" clip-rule="evenodd" d="M86.5 476.95L92.5 193.669H387V476.95H86.5Z" fill="#000DFF"/>
<path d="M395 279.3V193.669H568V291.249H519L498 279.3H395Z" fill="#000DFF"/>
<path d="M577.5 291.249V193.669H689.5V291.249H577.5Z" fill="#000DFF"/>
<path d="M699 291.249V193.669H815V291.249H699Z" fill="#000DFF"/>
<path d="M821.5 291.249V193.669H934V240.468L886 291.249H821.5Z" fill="#000DFF"/>
<path d="M1001 193.669V240.468L1029.5 270.339H1060V193.669H1001Z" fill="#000DFF"/>
<path d="M1064 193.669H1120.5V270.339H1064V193.669Z" fill="#000DFF"/>
<path d="M1123.5 390.82L1125.5 477.447H1006.5V420.194L1032.5 390.82H1123.5Z" fill="#000DFF"/>
<path d="M945.5 420.193H999L1001 477.447H945.5V420.193Z" fill="#000DFF"/>
<path d="M821.5 382.356H902L940 420.194V477.447H821.5V382.356Z" fill="#000DFF"/>
<path d="M699 382.356H816.5V447.078H745.5V477.447H699V382.356Z" fill="#000DFF"/>
<path d="M759 451.061H816.5V477.447H759V451.061Z" fill="#000DFF"/>
<path d="M573 417.704L611.5 382.356H694V477.447H573V417.704Z" fill="#000DFF"/>
<path d="M392.5 477.447V390.82H432.5V476.95L392.5 477.447Z" fill="#000DFF"/>
<path d="M437.5 390.82H476L511 421.687V476.95H437.5V390.82Z" fill="#000DFF"/>
<path d="M577.5 291.249V193.669H689.5V291.249H577.5Z" fill="#000DFF"/>
<path d="M395 279.3V193.669H568V291.249H519L498 279.3H395Z" fill="#000DFF"/>
</svg>
