<svg width="1259" height="697" viewBox="0 0 1259 697" fill="none" xmlns="http://www.w3.org/2000/svg">
<path d="M94.998 324.59L98.498 158.09H158.998L154.498 324.59H94.998Z" />
<path d="M94.998 330.59H154.498V437.09H92.998L94.998 330.59Z" />
<path d="M163.497 158.09H361.997V311.59H158.997L163.497 158.09Z" />
<path d="M359.497 318.09H158.997V394.09H359.497V318.09Z" />
<path d="M253.997 400.09H158.997V437.09H253.997V400.09Z" />
<path d="M359.497 400.09V437.09H260.997V400.09H359.497Z" />
<path d="M369.497 158.09H438.497V230.59H369.497V158.09Z" />
<path d="M443.497 230.59V158.09H529.497V230.59H443.497Z" />
<path d="M535.997 158.09H707.997V230.59H535.997V158.09Z" />
<path d="M716.497 230.59V158.09H876.497V230.59H716.497Z" />
<path d="M882.497 158.09V192.59H996.497V158.09H882.497Z" />
<path d="M1003 158.09H1176.5V211.09H1037.5L1003 192.59V158.09Z" />
<path d="M1124 362.59H1180.5L1183 431.09H1124V362.59Z" />
<path d="M897.497 362.59V431.09H751.997V362.59H897.497Z" />
<path d="M623.997 362.59H743.997V431.09H586.497V390.09H623.997V362.59Z" />
<path d="M577.997 390.09H526.997V431.09H577.997V390.09Z" />
<path d="M433.997 390.09H516.997V431.09H433.997V390.09Z" />
</svg>
